<?xml version="1.0" encoding="utf-8"?>
<!-- Generator: Adobe Illustrator 27.0.0, SVG Export Plug-In . SVG Version: 6.00 Build 0)  -->
<svg version="1.1" id="Layer_1" xmlns="http://www.w3.org/2000/svg" xmlns:xlink="http://www.w3.org/1999/xlink" x="0px" y="0px"
	 viewBox="0 0 1690.8 2292.2" style="enable-background:new 0 0 1690.8 2292.2;" xml:space="preserve">
<style type="text/css">
	.st0{font-family:'NeoSansPro-Ultra';}
	.st1{font-size:70px;}
	.st2{font-family:'NeoSansPro-Regular';}
	.st3{font-size:27px;}
	.st4{clip-path:url(#SVGID_00000064315811961456594490000002810717134037663416_);}
	.st5{clip-path:url(#SVGID_00000020356524143729699110000007700870532727621508_);}
	.st6{clip-path:url(#SVGID_00000006667316053544132900000009992233187792912525_);}
	.st7{clip-path:url(#SVGID_00000062158820413484126320000004111321151844538038_);}
	.st8{fill:#8F9092;}
	.st9{clip-path:url(#SVGID_00000175291946778819221330000018215195799864492930_);}
	.st10{clip-path:url(#SVGID_00000038409449441032910800000007992874831638714279_);}
	.st11{clip-path:url(#SVGID_00000108999142464414473190000002869182489177975700_);}
	.st12{fill:#BD2A33;}
	.st13{clip-path:url(#SVGID_00000064339372667984836530000005134142240463848070_);}
	.st14{clip-path:url(#SVGID_00000083804279419759187840000002567998194123952571_);}
	.st15{clip-path:url(#SVGID_00000109751159056562303380000017974649624730481810_);}
	.st16{clip-path:url(#SVGID_00000143609583463299613050000011606389722920462244_);}
	.st17{clip-path:url(#SVGID_00000008853989990858606510000003190891675653352847_);}
	.st18{clip-path:url(#SVGID_00000085243257235566873620000000653560522111740838_);}
	.st19{clip-path:url(#SVGID_00000013902714162941660790000002728702065276674726_);}
	.st20{font-family:'NeoSansPro-Medium';}
	.st21{font-size:45px;}
	.st22{font-size:30px;}
	.st23{letter-spacing:6;}
	.st24{font-family:'NeoSansPro-Italic';}
	.st25{letter-spacing:3;}
	.st26{letter-spacing:13;}
	.st27{letter-spacing:7;}
	.st28{letter-spacing:-1;}
	.st29{letter-spacing:1;}
	.st30{letter-spacing:10;}
	.st31{letter-spacing:9;}
	.st32{fill:#CD7F7F;stroke:#000000;stroke-width:3;stroke-miterlimit:10;}
	.st33{fill:none;stroke:#000000;stroke-width:3;stroke-miterlimit:10;}
	.st34{fill:none;stroke:#B73237;stroke-width:5;stroke-miterlimit:10;}
	.st35{fill:none;stroke:#B73237;stroke-width:5;stroke-miterlimit:10;stroke-dasharray:0,0,6.03,6.03;}
	.st36{fill:none;stroke:#B73237;stroke-width:5;stroke-miterlimit:10;stroke-dasharray:0,0,5.86,5.86;}
	.st37{font-size:25px;}
	.st38{letter-spacing:-2;}
</style>
<g id="Header">
	<text transform="matrix(1 0 0 1 257.95 60.9999)" class="st0 st1">P</text>
	<text transform="matrix(1 0 0 1 305.41 60.9999)" class="st0 st1">a</text>
	<text transform="matrix(1 0 0 1 346.71 60.9999)" class="st0 st1">r</text>
	<text transform="matrix(1 0 0 1 376.04 60.9999)" class="st0 st1">ame</text>
	<text transform="matrix(1 0 0 1 525.35 60.9999)" class="st0 st1">t</text>
	<text transform="matrix(1 0 0 1 554.54 60.9999)" class="st0 st1">er </text>
	<text transform="matrix(1 0 0 1 645.19 60.9999)" class="st0 st1">e</text>
	<text transform="matrix(1 0 0 1 687.61 60.9999)" class="st0 st1">stim</text>
	<text transform="matrix(1 0 0 1 843.49 60.9999)" class="st0 st1">a</text>
	<text transform="matrix(1 0 0 1 883.74 60.9999)" class="st0 st1">tion in the </text>
	<text transform="matrix(1 0 0 1 257.95 144.9999)" class="st0 st1">Medt</text>
	<text transform="matrix(1 0 0 1 436.1 144.9999)" class="st0 st1">r</text>
	<text transform="matrix(1 0 0 1 466.48 144.9999)" class="st0 st1">onic Virtual </text>
	<text transform="matrix(1 0 0 1 889.9 144.9999)" class="st0 st1">P</text>
	<text transform="matrix(1 0 0 1 937.36 144.9999)" class="st0 st1">a</text>
	<text transform="matrix(1 0 0 1 977.61 144.9999)" class="st0 st1">tient using  </text>
	<text transform="matrix(1 0 0 1 257.95 228.9999)" class="st0 st1">P</text>
	<text transform="matrix(1 0 0 1 306.8101 228.9999)" class="st0 st1">hy</text>
	<text transform="matrix(1 0 0 1 395.5701 228.9999)" class="st0 st1">sics I</text>
	<text transform="matrix(1 0 0 1 569.31 228.9999)" class="st0 st1">n</text>
	<text transform="matrix(1 0 0 1 613.9 228.9999)" class="st0 st1">f</text>
	<text transform="matrix(1 0 0 1 642.81 228.9999)" class="st0 st1">ormed Neu</text>
	<text transform="matrix(1 0 0 1 1028.4299 228.9999)" class="st0 st1">r</text>
	<text transform="matrix(1 0 0 1 1057.76 228.9999)" class="st0 st1">al Net</text>
	<text transform="matrix(1 0 0 1 1265.1001 228.9999)" class="st0 st1">w</text>
	<text transform="matrix(1 0 0 1 1326.9099 228.9999)" class="st0 st1">orks</text>
	<text transform="matrix(1 0 0 1 261.8 277.3901)" class="st2 st3">A</text>
	<text transform="matrix(1 0 0 1 278.89 277.3901)" class="st2 st3">n</text>
	<text transform="matrix(1 0 0 1 293.39 277.3901)" class="st2 st3">t</text>
	<text transform="matrix(1 0 0 1 303.38 277.3901)" class="st2 st3">on Espholm, Ja</text>
	<text transform="matrix(1 0 0 1 473.15 277.3901)" class="st2 st3">c</text>
	<text transform="matrix(1 0 0 1 484.38 277.3901)" class="st2 st3">ob Øager Mølle</text>
	<text transform="matrix(1 0 0 1 661.04 277.3901)" class="st2 st3">r</text>
	<text transform="matrix(1 0 0 1 669.47 277.3901)" class="st2 st3">, Mads Holbek Holm, Lucas </text>
	<text transform="matrix(1 0 0 1 987.39 277.3901)" class="st2 st3">P</text>
	<text transform="matrix(1 0 0 1 1002.91 277.3901)" class="st2 st3">edersen. Supervisor: Allan </text>
	<text transform="matrix(1 0 0 1 1315.3799 277.3901)" class="st2 st3">P</text>
	<text transform="matrix(1 0 0 1 1330.8999 277.3901)" class="st2 st3">e</text>
	<text transform="matrix(1 0 0 1 1344.78 277.3901)" class="st2 st3">ter Engsig-Karup</text>
	<g>
		<g>
			<defs>
				<rect id="SVGID_1_" x="30.9" y="6.5" width="163.2" height="236.9"/>
			</defs>
			<clipPath id="SVGID_00000122710240520996965470000017099947450825457053_">
				<use xlink:href="#SVGID_1_"  style="overflow:visible;"/>
			</clipPath>
			<g style="clip-path:url(#SVGID_00000122710240520996965470000017099947450825457053_);">
				<g>
					<g>
						<defs>
							<rect id="SVGID_00000095332210945411879940000003630330691951934609_" x="30.9" y="6.5" width="163.2" height="236.9"/>
						</defs>
						<clipPath id="SVGID_00000138570481304411364560000013113863781684269213_">
							<use xlink:href="#SVGID_00000095332210945411879940000003630330691951934609_"  style="overflow:visible;"/>
						</clipPath>
						<g style="clip-path:url(#SVGID_00000138570481304411364560000013113863781684269213_);">
							<g>
								<g>
									<defs>
										<rect id="SVGID_00000126312517206709458990000012030408227185056945_" x="30.9" y="6.5" width="163.2" height="236.9"/>
									</defs>
									<clipPath id="SVGID_00000171707006833911667590000000098769101720567716_">
										<use xlink:href="#SVGID_00000126312517206709458990000012030408227185056945_"  style="overflow:visible;"/>
									</clipPath>
									<g style="clip-path:url(#SVGID_00000171707006833911667590000000098769101720567716_);">
										<g>
											<g>
												<defs>
													
														<rect id="SVGID_00000031169660480352262480000002421026048643813023_" x="30.9" y="6.5" width="163.2" height="237.2"/>
												</defs>
												<clipPath id="SVGID_00000007396643723566132430000008223976247634081954_">
													<use xlink:href="#SVGID_00000031169660480352262480000002421026048643813023_"  style="overflow:visible;"/>
												</clipPath>
												<g style="clip-path:url(#SVGID_00000007396643723566132430000008223976247634081954_);">
													<path class="st8" d="M53.7,14.2h6.9c7.6,0,11.1,3.5,11.1,14.9v41c0,11.3-3.4,14.9-11.1,14.9h-6.9
														C53.7,84.9,53.7,14.2,53.7,14.2z M39.9,6.5v85.9H62c18.7,0,23.5-10.5,23.5-23.7V30.4c0-13.2-4.8-23.9-23.5-23.9H39.9z"
														/>
												</g>
											</g>
										</g>
									</g>
								</g>
							</g>
							<g>
								<g>
									<defs>
										<rect id="SVGID_00000178166147737005265200000011357617669226011830_" x="30.9" y="6.5" width="163.2" height="236.9"/>
									</defs>
									<clipPath id="SVGID_00000039124538261232212880000015517407194605162135_">
										<use xlink:href="#SVGID_00000178166147737005265200000011357617669226011830_"  style="overflow:visible;"/>
									</clipPath>
									<g style="clip-path:url(#SVGID_00000039124538261232212880000015517407194605162135_);">
										<polygon class="st8" points="134,6.5 90.4,6.5 90.4,14.6 104.9,14.6 104.9,92.6 120.1,92.6 120.1,14.6 134,14.6 
																					"/>
									</g>
								</g>
							</g>
							<g>
								<g>
									<defs>
										<rect id="SVGID_00000098213014509370535460000008655254771826866594_" x="30.9" y="6.5" width="163.2" height="236.9"/>
									</defs>
									<clipPath id="SVGID_00000016753966453138102420000001920287333298194090_">
										<use xlink:href="#SVGID_00000098213014509370535460000008655254771826866594_"  style="overflow:visible;"/>
									</clipPath>
									<g style="clip-path:url(#SVGID_00000016753966453138102420000001920287333298194090_);">
										<path class="st8" d="M171.3,6.5v65c0,8.2-1.4,13.6-9,13.6s-9-5.5-9-13.6v-65h-13.8v69.3c0,8.2,6.9,16.7,18.7,16.7h9
											c11.1,0,18-8.6,18-16.7V6.5H171.3L171.3,6.5z"/>
									</g>
								</g>
							</g>
							<g>
								<g>
									<defs>
										<rect id="SVGID_00000019653603204105272990000000192030243117287322_" x="30.9" y="6.5" width="163.2" height="236.9"/>
									</defs>
									<clipPath id="SVGID_00000019657775187454085530000002071940118482772101_">
										<use xlink:href="#SVGID_00000019653603204105272990000000192030243117287322_"  style="overflow:visible;"/>
									</clipPath>
									<g style="clip-path:url(#SVGID_00000019657775187454085530000002071940118482772101_);">
										<path class="st12" d="M194.1,225.5l-35.3,18.2c-44.2-17.4-48.4-17.4-93.3,0l-34.6-18.2l34.6-18.2
											c44.9,17.5,49.1,17.5,93.3,0L194.1,225.5z"/>
									</g>
								</g>
							</g>
							<g>
								<g>
									<defs>
										<rect id="SVGID_00000142160502853096432950000016558204389183920801_" x="30.9" y="6.5" width="163.2" height="236.9"/>
									</defs>
									<clipPath id="SVGID_00000135679709084970684580000010107491327406288802_">
										<use xlink:href="#SVGID_00000142160502853096432950000016558204389183920801_"  style="overflow:visible;"/>
									</clipPath>
									<g style="clip-path:url(#SVGID_00000135679709084970684580000010107491327406288802_);">
										<path class="st12" d="M194.1,180.7l-35.3,18.1c-44.2-17.4-48.4-17.4-93.3,0l-34.6-18.1l34.6-18.2
											c44.9,17.4,49.1,17.4,93.3,0L194.1,180.7z"/>
									</g>
								</g>
							</g>
							<g>
								<g>
									<defs>
										<rect id="SVGID_00000017506866060005871960000018306358371046877116_" x="30.9" y="6.5" width="163.2" height="236.9"/>
									</defs>
									<clipPath id="SVGID_00000138531158362003363470000016307403527029438600_">
										<use xlink:href="#SVGID_00000017506866060005871960000018306358371046877116_"  style="overflow:visible;"/>
									</clipPath>
									<g style="clip-path:url(#SVGID_00000138531158362003363470000016307403527029438600_);">
										<path class="st12" d="M194.1,135.7l-35.3,18.1c-44.2-17.4-48.4-17.4-93.3,0l-34.6-18.1l34.6-18.2
											c44.9,17.4,49.1,17.4,93.3,0L194.1,135.7z"/>
									</g>
								</g>
							</g>
							<g>
								<g>
									<defs>
										<rect id="SVGID_00000162313868477378451640000017314248099513989268_" x="30.9" y="6.5" width="163.2" height="236.9"/>
									</defs>
									<clipPath id="SVGID_00000137819290074782136000000008220505049852679849_">
										<use xlink:href="#SVGID_00000162313868477378451640000017314248099513989268_"  style="overflow:visible;"/>
									</clipPath>
									<g style="clip-path:url(#SVGID_00000137819290074782136000000008220505049852679849_);">
										<polygon class="st8" points="134,6.5 90.4,6.5 90.4,14.6 104.9,14.6 104.9,92.6 120.1,92.6 120.1,14.6 134,14.6 
																					"/>
									</g>
								</g>
							</g>
							<g>
								<g>
									<defs>
										<rect id="SVGID_00000009572538829586955780000011957683707403844757_" x="30.9" y="6.5" width="163.2" height="236.9"/>
									</defs>
									<clipPath id="SVGID_00000053506156397283365760000009560513871175375273_">
										<use xlink:href="#SVGID_00000009572538829586955780000011957683707403844757_"  style="overflow:visible;"/>
									</clipPath>
									<g style="clip-path:url(#SVGID_00000053506156397283365760000009560513871175375273_);">
										<path class="st8" d="M171.3,6.5v65c0,8.2-1.4,13.6-9,13.6s-9-5.5-9-13.6v-65h-13.8v69.3c0,8.2,6.9,16.7,18.7,16.7h9
											c11.1,0,18-8.6,18-16.7V6.5H171.3L171.3,6.5z"/>
									</g>
								</g>
							</g>
							<g>
								<g>
									<defs>
										<rect id="SVGID_00000054971918313529644220000009530463094467516854_" x="30.9" y="6.5" width="163.2" height="236.9"/>
									</defs>
									<clipPath id="SVGID_00000025416047488091195160000008558540577646925733_">
										<use xlink:href="#SVGID_00000054971918313529644220000009530463094467516854_"  style="overflow:visible;"/>
									</clipPath>
									<g style="clip-path:url(#SVGID_00000025416047488091195160000008558540577646925733_);">
										<path class="st12" d="M194.1,225.5l-35.3,18.2c-44.2-17.4-48.4-17.4-93.3,0l-34.6-18.2l34.6-18.2
											c44.9,17.5,49.1,17.5,93.3,0L194.1,225.5z"/>
									</g>
								</g>
							</g>
							<g>
								<g>
									<defs>
										<rect id="SVGID_00000183211117300119542290000006015404089358164923_" x="30.9" y="6.5" width="163.2" height="236.9"/>
									</defs>
									<clipPath id="SVGID_00000145742560383716433630000007165891527049599148_">
										<use xlink:href="#SVGID_00000183211117300119542290000006015404089358164923_"  style="overflow:visible;"/>
									</clipPath>
									<g style="clip-path:url(#SVGID_00000145742560383716433630000007165891527049599148_);">
										<path class="st12" d="M194.1,180.7l-35.3,18.1c-44.2-17.4-48.4-17.4-93.3,0l-34.6-18.1l34.6-18.2
											c44.9,17.4,49.1,17.4,93.3,0L194.1,180.7z"/>
									</g>
								</g>
							</g>
							<g>
								<g>
									<defs>
										<rect id="SVGID_00000061471681392018114880000006257475158197804416_" x="30.9" y="6.5" width="163.2" height="236.9"/>
									</defs>
									<clipPath id="SVGID_00000005260107133426387290000009464121725071790248_">
										<use xlink:href="#SVGID_00000061471681392018114880000006257475158197804416_"  style="overflow:visible;"/>
									</clipPath>
									<g style="clip-path:url(#SVGID_00000005260107133426387290000009464121725071790248_);">
										<path class="st12" d="M194.1,135.7l-35.3,18.1c-44.2-17.4-48.4-17.4-93.3,0l-34.6-18.1l34.6-18.2
											c44.9,17.4,49.1,17.4,93.3,0L194.1,135.7z"/>
									</g>
								</g>
							</g>
						</g>
					</g>
				</g>
			</g>
		</g>
	</g>
</g>
<g id="Motivation">
	<text transform="matrix(1 0 0 1 30.9301 363.36)" class="st20 st21">0   M</text>
	<text transform="matrix(1 0 0 1 128.67 363.36)" class="st20 st21">o</text>
	<text transform="matrix(1 0 0 1 153.37 363.36)" class="st20 st21">ti</text>
	<text transform="matrix(1 0 0 1 183.66 363.36)" class="st20 st21">v</text>
	<text transform="matrix(1 0 0 1 207.46 363.36)" class="st20 st21">a</text>
	<text transform="matrix(1 0 0 1 230.86 363.36)" class="st20 st21">tion</text>
	<text transform="matrix(1 0 0 1 30.9301 399.36)" class="st2 st22">R</text>
	<text transform="matrix(1 0 0 1 49.05 399.36)" class="st2 st22">eplacing clinical </text>
	<text transform="matrix(1 0 0 1 262.62 399.36)" class="st2 st22">e</text>
	<text transform="matrix(1 0 0 1 278.13 399.36)" class="st2 st22">xperime</text>
	<text transform="matrix(1 0 0 1 385.01 399.36)" class="st2 st22">n</text>
	<text transform="matrix(1 0 0 1 401.12 399.36)" class="st2 st22">ts on </text>
	<text transform="matrix(1 0 0 1 474.53 399.36)" class="st20 st22">T</text>
	<text transform="matrix(1 0 0 1 490.7 399.36)" class="st20 st22">ype 1 diab</text>
	<text transform="matrix(1 0 0 1 635.03 399.36)" class="st20 st22">e</text>
	<text transform="matrix(1 0 0 1 651.65 399.36)" class="st20 st22">tes</text>
	<text transform="matrix(1 0 0 1 30.9301 435.36)" class="st2 st22">(T1D)</text>
	<text transform="matrix(1 0 0 1 104.3101 435.36)" class="st2 st22 st23"> </text>
	<text transform="matrix(1 0 0 1 119.42 435.36)" class="st2 st22">with</text>
	<text transform="matrix(1 0 0 1 178.67 435.36)" class="st2 st22 st23"> </text>
	<text transform="matrix(1 0 0 1 193.78 435.36)" class="st24 st22">in-vitu</text>
	<text transform="matrix(1 0 0 1 279.16 435.36)" class="st2 st22 st23"> </text>
	<text transform="matrix(1 0 0 1 294.28 435.36)" class="st2 st22">e</text>
	<text transform="matrix(1 0 0 1 309.79 435.36)" class="st2 st22">xperime</text>
	<text transform="matrix(1 0 0 1 416.6699 435.36)" class="st2 st22">n</text>
	<text transform="matrix(1 0 0 1 432.78 435.36)" class="st2 st22">ts</text>
	<text transform="matrix(1 0 0 1 458.3101 435.36)" class="st2 st22 st23"> </text>
	<text transform="matrix(1 0 0 1 473.4299 435.36)" class="st2 st22">on</text>
	<text transform="matrix(1 0 0 1 506.49 435.36)" class="st2 st22 st23"> </text>
	<text transform="matrix(1 0 0 1 521.6 435.36)" class="st2 st22">virtual</text>
	<text transform="matrix(1 0 0 1 606.32 435.36)" class="st2 st22 st23"> </text>
	<text transform="matrix(1 0 0 1 621.43 435.36)" class="st2 st22">p</text>
	<text transform="matrix(1 0 0 1 637.66 435.36)" class="st2 st22">a</text>
	<text transform="matrix(1 0 0 1 652.51 435.36)" class="st2 st22">tie</text>
	<text transform="matrix(1 0 0 1 687.79 435.36)" class="st2 st22">n</text>
	<text transform="matrix(1 0 0 1 703.9 435.36)" class="st2 st22">ts, </text>
	<text transform="matrix(1 0 0 1 30.9301 471.36)" class="st2 st22">such</text>
	<text transform="matrix(1 0 0 1 91.89 471.36)" class="st2 st22 st25"> </text>
	<text transform="matrix(1 0 0 1 102.4 471.36)" class="st2 st22">as</text>
	<text transform="matrix(1 0 0 1 131.9399 471.36)" class="st2 st22 st25"> </text>
	<text transform="matrix(1 0 0 1 142.45 471.36)" class="st2 st22">the</text>
	<text transform="matrix(1 0 0 1 187.03 471.36)" class="st2 st22 st25"> </text>
	<text transform="matrix(1 0 0 1 197.54 471.36)" class="st20 st22">Medt</text>
	<text transform="matrix(1 0 0 1 267.97 471.36)" class="st20 st22">r</text>
	<text transform="matrix(1 0 0 1 278.45 471.36)" class="st20 st22">onic</text>
	<text transform="matrix(1 0 0 1 335.5 471.36)" class="st20 st22 st25"> </text>
	<text transform="matrix(1 0 0 1 346.14 471.36)" class="st20 st22">Virtual</text>
	<text transform="matrix(1 0 0 1 439.62 471.36)" class="st20 st22 st25"> </text>
	<text transform="matrix(1 0 0 1 450.25 471.36)" class="st20 st22">P</text>
	<text transform="matrix(1 0 0 1 468.37 471.36)" class="st20 st22">a</text>
	<text transform="matrix(1 0 0 1 483.97 471.36)" class="st20 st22">tie</text>
	<text transform="matrix(1 0 0 1 521.38 471.36)" class="st20 st22">n</text>
	<text transform="matrix(1 0 0 1 538.54 471.36)" class="st20 st22">t</text>
	<text transform="matrix(1 0 0 1 550.69 471.36)" class="st20 st22 st25"> </text>
	<text transform="matrix(1 0 0 1 561.32 471.36)" class="st20 st22">(</text>
	<text transform="matrix(1 0 0 1 571.31 471.36)" class="st20 st22">M</text>
	<text transform="matrix(1 0 0 1 594.56 471.36)" class="st20 st22">VP),</text>
	<text transform="matrix(1 0 0 1 650.78 471.36)" class="st20 st22 st25"> </text>
	<text transform="matrix(1 0 0 1 661.41 471.36)" class="st2 st22">is</text>
	<text transform="matrix(1 0 0 1 682.8 471.36)" class="st2 st22 st25"> </text>
	<text transform="matrix(1 0 0 1 693.31 471.36)" class="st2 st22">be</text>
	<text transform="matrix(1 0 0 1 725.86 471.36)" class="st2 st22">-</text>
	<text transform="matrix(1 0 0 1 30.9301 507.36)" class="st2 st22">c</text>
	<text transform="matrix(1 0 0 1 43.41 507.36)" class="st2 st22">oming</text>
	<text transform="matrix(1 0 0 1 124.59 507.36)" class="st2 st22"> </text>
	<text transform="matrix(1 0 0 1 133.58 507.36)" class="st2 st22">an</text>
	<text transform="matrix(1 0 0 1 165.86 507.36)" class="st2 st22"> </text>
	<text transform="matrix(1 0 0 1 174.84 507.36)" class="st2 st22">inc</text>
	<text transform="matrix(1 0 0 1 212.52 507.36)" class="st2 st22">r</text>
	<text transform="matrix(1 0 0 1 222.0601 507.36)" class="st2 st22">easingly</text>
	<text transform="matrix(1 0 0 1 332.16 507.36)" class="st2 st22"> </text>
	<text transform="matrix(1 0 0 1 341.15 507.36)" class="st2 st22">popular</text>
	<text transform="matrix(1 0 0 1 439.8201 507.36)" class="st2 st22"> </text>
	<text transform="matrix(1 0 0 1 448.8101 507.36)" class="st2 st22">choice.</text>
	<text transform="matrix(1 0 0 1 539.14 507.36)" class="st2 st22"> </text>
	<text transform="matrix(1 0 0 1 548.12 507.36)" class="st2 st22">H</text>
	<text transform="matrix(1 0 0 1 568.52 507.36)" class="st2 st22">o</text>
	<text transform="matrix(1 0 0 1 584.36 507.36)" class="st2 st22">w</text>
	<text transform="matrix(1 0 0 1 607.49 507.36)" class="st2 st22">ev</text>
	<text transform="matrix(1 0 0 1 638.51 507.36)" class="st2 st22">er</text>
	<text transform="matrix(1 0 0 1 665.09 507.36)" class="st2 st22"> </text>
	<text transform="matrix(1 0 0 1 674.08 507.36)" class="st2 st22">fin</text>
	<text transform="matrix(1 0 0 1 725.86 507.36)" class="st2 st22">-</text>
	<text transform="matrix(1 0 0 1 30.9301 543.36)" class="st2 st22">ing</text>
	<text transform="matrix(1 0 0 1 71.8199 543.36)" class="st2 st22 st26"> </text>
	<text transform="matrix(1 0 0 1 93.36 543.36)" class="st2 st22">p</text>
	<text transform="matrix(1 0 0 1 109.59 543.36)" class="st2 st22">a</text>
	<text transform="matrix(1 0 0 1 124.4399 543.36)" class="st2 st22">tie</text>
	<text transform="matrix(1 0 0 1 159.72 543.36)" class="st2 st22">n</text>
	<text transform="matrix(1 0 0 1 175.83 543.36)" class="st2 st22">t-specific</text>
	<text transform="matrix(1 0 0 1 297.26 543.36)" class="st2 st22 st26"> </text>
	<text transform="matrix(1 0 0 1 318.8 543.36)" class="st2 st22">pa</text>
	<text transform="matrix(1 0 0 1 350.6 543.36)" class="st2 st22">r</text>
	<text transform="matrix(1 0 0 1 360.05 543.36)" class="st2 st22">am</text>
	<text transform="matrix(1 0 0 1 399.5601 543.36)" class="st2 st22">e</text>
	<text transform="matrix(1 0 0 1 414.98 543.36)" class="st2 st22">ters</text>
	<text transform="matrix(1 0 0 1 467.09 543.36)" class="st2 st22 st26"> </text>
	<text transform="matrix(1 0 0 1 488.62 543.36)" class="st2 st22">r</text>
	<text transform="matrix(1 0 0 1 498.16 543.36)" class="st2 st22">emains</text>
	<text transform="matrix(1 0 0 1 592.09 543.36)" class="st2 st22 st26"> </text>
	<text transform="matrix(1 0 0 1 613.63 543.36)" class="st2 st22">an</text>
	<text transform="matrix(1 0 0 1 645.91 543.36)" class="st2 st22 st26"> </text>
	<text transform="matrix(1 0 0 1 667.45 543.36)" class="st2 st22">issue </text>
	<text transform="matrix(1 0 0 1 30.9301 579.36)" class="st20 st22">[1,2]</text>
	<text transform="matrix(1 0 0 1 97.86 579.36)" class="st2 st22">.</text>
	<text transform="matrix(1 0 0 1 104.28 579.36)" class="st2 st22 st23"> </text>
	<text transform="matrix(1 0 0 1 117.88 579.36)" class="st2 st22">He</text>
	<text transform="matrix(1 0 0 1 154.6 579.36)" class="st2 st22">r</text>
	<text transform="matrix(1 0 0 1 164.14 579.36)" class="st2 st22">e</text>
	<text transform="matrix(1 0 0 1 180.46 579.36)" class="st2 st22 st23"> </text>
	<text transform="matrix(1 0 0 1 194.0601 579.36)" class="st2 st22">w</text>
	<text transform="matrix(1 0 0 1 217.1899 579.36)" class="st2 st22">e</text>
	<text transform="matrix(1 0 0 1 233.51 579.36)" class="st2 st22 st23"> </text>
	<text transform="matrix(1 0 0 1 247.12 579.36)" class="st2 st22">a</text>
	<text transform="matrix(1 0 0 1 261.97 579.36)" class="st2 st22">ttem</text>
	<text transform="matrix(1 0 0 1 325.33 579.36)" class="st2 st22">p</text>
	<text transform="matrix(1 0 0 1 340.66 579.36)" class="st2 st22">t</text>
	<text transform="matrix(1 0 0 1 352.2 579.36)" class="st2 st22 st23"> </text>
	<text transform="matrix(1 0 0 1 365.8101 579.36)" class="st2 st22">t</text>
	<text transform="matrix(1 0 0 1 376.91 579.36)" class="st2 st22">o</text>
	<text transform="matrix(1 0 0 1 393.26 579.36)" class="st2 st22 st23"> </text>
	<text transform="matrix(1 0 0 1 406.86 579.36)" class="st2 st22">e</text>
	<text transform="matrix(1 0 0 1 423.1799 579.36)" class="st2 st22">s</text>
	<text transform="matrix(1 0 0 1 436.77 579.36)" class="st2 st22">tim</text>
	<text transform="matrix(1 0 0 1 479.6699 579.36)" class="st2 st22">a</text>
	<text transform="matrix(1 0 0 1 494.52 579.36)" class="st2 st22">te</text>
	<text transform="matrix(1 0 0 1 522.39 579.36)" class="st2 st22 st23"> </text>
	<text transform="matrix(1 0 0 1 535.99 579.36)" class="st2 st22">some</text>
	<text transform="matrix(1 0 0 1 606.58 579.36)" class="st2 st22 st23"> </text>
	<text transform="matrix(1 0 0 1 620.18 579.36)" class="st2 st22">o</text>
	<text transform="matrix(1 0 0 1 635.93 579.36)" class="st2 st22">f</text>
	<text transform="matrix(1 0 0 1 647.36 579.36)" class="st2 st22 st23"> </text>
	<text transform="matrix(1 0 0 1 660.97 579.36)" class="st2 st22">these </text>
	<text transform="matrix(1 0 0 1 30.9301 615.36)" class="st2 st22">using </text>
	<text transform="matrix(1 0 0 1 109.92 615.36)" class="st20 st22">P</text>
	<text transform="matrix(1 0 0 1 128.7 615.36)" class="st20 st22">h</text>
	<text transform="matrix(1 0 0 1 145.86 615.36)" class="st20 st22">ysi</text>
	<text transform="matrix(1 0 0 1 185.37 615.36)" class="st20 st22">c</text>
	<text transform="matrix(1 0 0 1 198.96 615.36)" class="st20 st22">s I</text>
	<text transform="matrix(1 0 0 1 229.8 615.36)" class="st20 st22">n</text>
	<text transform="matrix(1 0 0 1 246.96 615.36)" class="st20 st22">f</text>
	<text transform="matrix(1 0 0 1 258.0601 615.36)" class="st20 st22">ormed Neu</text>
	<text transform="matrix(1 0 0 1 410.34 615.36)" class="st20 st22">r</text>
	<text transform="matrix(1 0 0 1 420.87 615.36)" class="st20 st22">al N</text>
	<text transform="matrix(1 0 0 1 474.3201 615.36)" class="st20 st22">e</text>
	<text transform="matrix(1 0 0 1 490.9399 615.36)" class="st20 st22">t</text>
	<text transform="matrix(1 0 0 1 503.09 615.36)" class="st20 st22">w</text>
	<text transform="matrix(1 0 0 1 527.21 615.36)" class="st20 st22">orks</text>
	<text transform="matrix(1 0 0 1 586.82 615.36)" class="st2 st22"> (PINNs).</text>
</g>
<g id="PINNS">
	<text transform="matrix(1 0 0 1 806.44 629.5099)" class="st20 st21">2   The driving principles </text>
	<text transform="matrix(1 0 0 1 1326.1799 629.5099)" class="st20 st21">o</text>
	<text transform="matrix(1 0 0 1 1351.11 629.5099)" class="st20 st21">f PINNS</text>
	<text transform="matrix(1 0 0 1 801.71 1232.22)" class="st2 st22">PINNs build on </text>
	<text transform="matrix(1 0 0 1 1001.48 1232.22)" class="st20 st22">Deep Neu</text>
	<text transform="matrix(1 0 0 1 1137.0701 1232.22)" class="st20 st22">r</text>
	<text transform="matrix(1 0 0 1 1147.6001 1232.22)" class="st20 st22">al N</text>
	<text transform="matrix(1 0 0 1 1201.0601 1232.22)" class="st20 st22">e</text>
	<text transform="matrix(1 0 0 1 1217.6801 1232.22)" class="st20 st22">t</text>
	<text transform="matrix(1 0 0 1 1229.8301 1232.22)" class="st20 st22">w</text>
	<text transform="matrix(1 0 0 1 1253.95 1232.22)" class="st20 st22">orks</text>
	<text transform="matrix(1 0 0 1 1313.5601 1232.22)" class="st2 st22">, by en</text>
	<text transform="matrix(1 0 0 1 1400.0801 1232.22)" class="st2 st22">c</text>
	<text transform="matrix(1 0 0 1 1412.5601 1232.22)" class="st2 st22">oding </text>
	<text transform="matrix(1 0 0 1 801.71 1268.22)" class="st2 st22">p</text>
	<text transform="matrix(1 0 0 1 817.94 1268.22)" class="st2 st22">h</text>
	<text transform="matrix(1 0 0 1 834.05 1268.22)" class="st2 st22">ysical</text>
	<text transform="matrix(1 0 0 1 907.91 1268.22)" class="st2 st22 st25"> </text>
	<text transform="matrix(1 0 0 1 918.83 1268.22)" class="st2 st22">laws</text>
	<text transform="matrix(1 0 0 1 979.28 1268.22)" class="st2 st22 st25"> </text>
	<text transform="matrix(1 0 0 1 990.2 1268.22)" class="st2 st22">i</text>
	<text transform="matrix(1 0 0 1 997.61 1268.22)" class="st2 st22">n</text>
	<text transform="matrix(1 0 0 1 1013.72 1268.22)" class="st2 st22">t</text>
	<text transform="matrix(1 0 0 1 1024.8201 1268.22)" class="st2 st22">o</text>
	<text transform="matrix(1 0 0 1 1041.17 1268.22)" class="st2 st22 st25"> </text>
	<text transform="matrix(1 0 0 1 1052.0901 1268.22)" class="st2 st22">the</text>
	<text transform="matrix(1 0 0 1 1096.67 1268.22)" class="st2 st22 st25"> </text>
	<text transform="matrix(1 0 0 1 1107.5901 1268.22)" class="st2 st22">loss</text>
	<text transform="matrix(1 0 0 1 1159.21 1268.22)" class="st2 st22 st25"> </text>
	<text transform="matrix(1 0 0 1 1170.13 1268.22)" class="st2 st22">function,</text>
	<text transform="matrix(1 0 0 1 1286.98 1268.22)" class="st2 st22 st25"> </text>
	<text transform="matrix(1 0 0 1 1297.9 1268.22)" class="st2 st22">by</text>
	<text transform="matrix(1 0 0 1 1330.15 1268.22)" class="st2 st22 st25"> </text>
	<text transform="matrix(1 0 0 1 1341.0701 1268.22)" class="st2 st22">using</text>
	<text transform="matrix(1 0 0 1 1412.65 1268.22)" class="st2 st22 st25"> </text>
	<text transform="matrix(1 0 0 1 1423.5701 1268.22)" class="st20 st22">Au</text>
	<text transform="matrix(1 0 0 1 1460.71 1268.22)" class="st20 st22">t</text>
	<text transform="matrix(1 0 0 1 1472.5601 1268.22)" class="st20 st22">om</text>
	<text transform="matrix(1 0 0 1 1515.22 1268.22)" class="st20 st22">a</text>
	<text transform="matrix(1 0 0 1 1530.8201 1268.22)" class="st20 st22">tic </text>
	<text transform="matrix(1 0 0 1 801.71 1304.22)" class="st20 st22">Di</text>
	<text transform="matrix(1 0 0 1 829.76 1304.22)" class="st20 st22">ff</text>
	<text transform="matrix(1 0 0 1 851 1304.22)" class="st20 st22">e</text>
	<text transform="matrix(1 0 0 1 868.22 1304.22)" class="st20 st22">r</text>
	<text transform="matrix(1 0 0 1 878.9 1304.22)" class="st20 st22">e</text>
	<text transform="matrix(1 0 0 1 896.12 1304.22)" class="st20 st22">n</text>
	<text transform="matrix(1 0 0 1 913.28 1304.22)" class="st20 st22">ti</text>
	<text transform="matrix(1 0 0 1 933.47 1304.22)" class="st20 st22">a</text>
	<text transform="matrix(1 0 0 1 949.07 1304.22)" class="st20 st22">tion</text>
	<text transform="matrix(1 0 0 1 1004.24 1304.22)" class="st2 st22"> </text>
	<text transform="matrix(1 0 0 1 1011.65 1304.22)" class="st2 st22">t</text>
	<text transform="matrix(1 0 0 1 1022.75 1304.22)" class="st2 st22">o app</text>
	<text transform="matrix(1 0 0 1 1094.54 1304.22)" class="st2 st22">r</text>
	<text transform="matrix(1 0 0 1 1104.05 1304.22)" class="st2 st22">o</text>
	<text transform="matrix(1 0 0 1 1119.3501 1304.22)" class="st2 st22">xim</text>
	<text transform="matrix(1 0 0 1 1167.11 1304.22)" class="st2 st22">a</text>
	<text transform="matrix(1 0 0 1 1181.96 1304.22)" class="st2 st22">te deri</text>
	<text transform="matrix(1 0 0 1 1267.46 1304.22)" class="st2 st22">v</text>
	<text transform="matrix(1 0 0 1 1282.73 1304.22)" class="st2 st22">a</text>
	<text transform="matrix(1 0 0 1 1297.5801 1304.22)" class="st2 st22">ti</text>
	<text transform="matrix(1 0 0 1 1316.54 1304.22)" class="st2 st22">v</text>
	<text transform="matrix(1 0 0 1 1331.8401 1304.22)" class="st2 st22">es </text>
	<text transform="matrix(1 0 0 1 1369.55 1304.22)" class="st2 st22">o</text>
	<text transform="matrix(1 0 0 1 1385.3 1304.22)" class="st2 st22">f the ODEs.</text>
	<text transform="matrix(1 0 0 1 801.71 1340.22)" class="st2 st22"> </text>
	<text transform="matrix(1 0 0 1 801.71 1376.22)" class="st2 st22">PINNs</text>
	<text transform="matrix(1 0 0 1 882.29 1376.22)" class="st2 st22"> </text>
	<text transform="matrix(1 0 0 1 890.75 1376.22)" class="st2 st22">a</text>
	<text transform="matrix(1 0 0 1 906.32 1376.22)" class="st2 st22">r</text>
	<text transform="matrix(1 0 0 1 915.86 1376.22)" class="st2 st22">e</text>
	<text transform="matrix(1 0 0 1 932.1801 1376.22)" class="st2 st22"> </text>
	<text transform="matrix(1 0 0 1 940.65 1376.22)" class="st2 st22">able</text>
	<text transform="matrix(1 0 0 1 996.09 1376.22)" class="st2 st22"> </text>
	<text transform="matrix(1 0 0 1 1004.55 1376.22)" class="st2 st22">t</text>
	<text transform="matrix(1 0 0 1 1015.65 1376.22)" class="st2 st22">o</text>
	<text transform="matrix(1 0 0 1 1032 1376.22)" class="st2 st22"> </text>
	<text transform="matrix(1 0 0 1 1040.47 1376.22)" class="st2 st22">c</text>
	<text transform="matrix(1 0 0 1 1052.9501 1376.22)" class="st2 st22">o</text>
	<text transform="matrix(1 0 0 1 1069.3 1376.22)" class="st2 st22">n</text>
	<text transform="matrix(1 0 0 1 1085.3501 1376.22)" class="st2 st22">v</text>
	<text transform="matrix(1 0 0 1 1100.65 1376.22)" class="st2 st22">e</text>
	<text transform="matrix(1 0 0 1 1116.97 1376.22)" class="st2 st22">r</text>
	<text transform="matrix(1 0 0 1 1126.51 1376.22)" class="st2 st22">ge</text>
	<text transform="matrix(1 0 0 1 1159.6001 1376.22)" class="st2 st22"> </text>
	<text transform="matrix(1 0 0 1 1168.0601 1376.22)" class="st2 st22">with</text>
	<text transform="matrix(1 0 0 1 1227.3101 1376.22)" class="st2 st22"> </text>
	<text transform="matrix(1 0 0 1 1235.78 1376.22)" class="st2 st22">less</text>
	<text transform="matrix(1 0 0 1 1287.38 1376.22)" class="st2 st22"> </text>
	<text transform="matrix(1 0 0 1 1295.8401 1376.22)" class="st2 st22">d</text>
	<text transform="matrix(1 0 0 1 1312.0701 1376.22)" class="st2 st22">a</text>
	<text transform="matrix(1 0 0 1 1326.92 1376.22)" class="st2 st22">ta</text>
	<text transform="matrix(1 0 0 1 1354.04 1376.22)" class="st2 st22"> </text>
	<text transform="matrix(1 0 0 1 1362.51 1376.22)" class="st2 st22">than</text>
	<text transform="matrix(1 0 0 1 1423.05 1376.22)" class="st2 st22"> </text>
	<text transform="matrix(1 0 0 1 1431.51 1376.22)" class="st2 st22">o</text>
	<text transform="matrix(1 0 0 1 1446.96 1376.22)" class="st2 st22">ther</text>
	<text transform="matrix(1 0 0 1 1501.8 1376.22)" class="st2 st22"> </text>
	<text transform="matrix(1 0 0 1 1510.27 1376.22)" class="st2 st22">NNs </text>
	<text transform="matrix(1 0 0 1 801.71 1412.22)" class="st2 st22">since</text>
	<text transform="matrix(1 0 0 1 869.69 1412.22)" class="st2 st22 st27"> </text>
	<text transform="matrix(1 0 0 1 885.64 1412.22)" class="st2 st22">the</text>
	<text transform="matrix(1 0 0 1 930.22 1412.22)" class="st2 st22 st27"> </text>
	<text transform="matrix(1 0 0 1 946.17 1412.22)" class="st2 st22">loss</text>
	<text transform="matrix(1 0 0 1 997.8 1412.22)" class="st2 st22 st27"> </text>
	<text transform="matrix(1 0 0 1 1013.75 1412.22)" class="st2 st22">is</text>
	<text transform="matrix(1 0 0 1 1035.14 1412.22)" class="st2 st22 st27"> </text>
	<text transform="matrix(1 0 0 1 1051.0901 1412.22)" class="st2 st22">suppleme</text>
	<text transform="matrix(1 0 0 1 1178.14 1412.22)" class="st2 st22">n</text>
	<text transform="matrix(1 0 0 1 1194.25 1412.22)" class="st2 st22">ted</text>
	<text transform="matrix(1 0 0 1 1238.3501 1412.22)" class="st2 st22 st27"> </text>
	<text transform="matrix(1 0 0 1 1254.3 1412.22)" class="st2 st22">by</text>
	<text transform="matrix(1 0 0 1 1286.55 1412.22)" class="st2 st22 st27"> </text>
	<text transform="matrix(1 0 0 1 1302.5 1412.22)" class="st2 st22">domain</text>
	<text transform="matrix(1 0 0 1 1398.71 1412.22)" class="st2 st22 st27"> </text>
	<text transform="matrix(1 0 0 1 1414.66 1412.22)" class="st2 st22">kn</text>
	<text transform="matrix(1 0 0 1 1446.25 1412.22)" class="st2 st22">o</text>
	<text transform="matrix(1 0 0 1 1462.0901 1412.22)" class="st2 st22">wledge. </text>
	<text transform="matrix(1 0 0 1 801.71 1448.22)" class="st2 st22">While</text>
	<text transform="matrix(1 0 0 1 874.22 1448.22)" class="st2 st22 st25"> </text>
	<text transform="matrix(1 0 0 1 884.62 1448.22)" class="st2 st22">classical</text>
	<text transform="matrix(1 0 0 1 992.89 1448.22)" class="st2 st22 st25"> </text>
	<text transform="matrix(1 0 0 1 1003.29 1448.22)" class="st2 st22">numerical</text>
	<text transform="matrix(1 0 0 1 1131.0901 1448.22)" class="st2 st22 st25"> </text>
	<text transform="matrix(1 0 0 1 1141.49 1448.22)" class="st2 st22">m</text>
	<text transform="matrix(1 0 0 1 1165.4301 1448.22)" class="st2 st22">e</text>
	<text transform="matrix(1 0 0 1 1180.8501 1448.22)" class="st2 st22">thods</text>
	<text transform="matrix(1 0 0 1 1255.66 1448.22)" class="st2 st22 st25"> </text>
	<text transform="matrix(1 0 0 1 1266.0701 1448.22)" class="st2 st22">al</text>
	<text transform="matrix(1 0 0 1 1288.96 1448.22)" class="st2 st22">r</text>
	<text transform="matrix(1 0 0 1 1298.5 1448.22)" class="st2 st22">eady</text>
	<text transform="matrix(1 0 0 1 1362.63 1448.22)" class="st2 st22 st25"> </text>
	<text transform="matrix(1 0 0 1 1373.04 1448.22)" class="st2 st22">sol</text>
	<text transform="matrix(1 0 0 1 1410.6799 1448.22)" class="st2 st22">v</text>
	<text transform="matrix(1 0 0 1 1425.98 1448.22)" class="st2 st22">e</text>
	<text transform="matrix(1 0 0 1 1442.3 1448.22)" class="st2 st22 st25"> </text>
	<text transform="matrix(1 0 0 1 1452.71 1448.22)" class="st2 st22">ODE&apos;s</text>
	<text transform="matrix(1 0 0 1 1528.03 1448.22)" class="st2 st22 st25"> </text>
	<text transform="matrix(1 0 0 1 1538.4299 1448.22)" class="st2 st22">or </text>
	<text transform="matrix(1 0 0 1 801.71 1484.22)" class="st2 st22">PDE&apos;s</text>
	<text transform="matrix(1 0 0 1 875 1484.22)" class="st2 st22"> </text>
	<text transform="matrix(1 0 0 1 882.27 1484.22)" class="st2 st22">e</text>
	<text transform="matrix(1 0 0 1 897.99 1484.22)" class="st2 st22">fficie</text>
	<text transform="matrix(1 0 0 1 963.69 1484.22)" class="st2 st22">n</text>
	<text transform="matrix(1 0 0 1 979.8 1484.22)" class="st2 st22">tl</text>
	<text transform="matrix(1 0 0 1 998.67 1484.22)" class="st2 st22">y</text>
	<text transform="matrix(1 0 0 1 1013.58 1484.22)" class="st2 st22">,</text>
	<text transform="matrix(1 0 0 1 1020 1484.22)" class="st2 st22"> </text>
	<text transform="matrix(1 0 0 1 1027.26 1484.22)" class="st2 st22">w</text>
	<text transform="matrix(1 0 0 1 1050.39 1484.22)" class="st2 st22">e</text>
	<text transform="matrix(1 0 0 1 1066.71 1484.22)" class="st2 st22"> </text>
	<text transform="matrix(1 0 0 1 1073.98 1484.22)" class="st2 st22">can</text>
	<text transform="matrix(1 0 0 1 1119.8201 1484.22)" class="st2 st22"> </text>
	<text transform="matrix(1 0 0 1 1127.0901 1484.22)" class="st2 st22">utili</text>
	<text transform="matrix(1 0 0 1 1177.49 1484.22)" class="st2 st22">z</text>
	<text transform="matrix(1 0 0 1 1191.38 1484.22)" class="st2 st22">e</text>
	<text transform="matrix(1 0 0 1 1207.7 1484.22)" class="st2 st22"> </text>
	<text transform="matrix(1 0 0 1 1214.97 1484.22)" class="st2 st22">PINNs</text>
	<text transform="matrix(1 0 0 1 1295.55 1484.22)" class="st2 st22"> </text>
	<text transform="matrix(1 0 0 1 1302.8101 1484.22)" class="st2 st22">t</text>
	<text transform="matrix(1 0 0 1 1313.91 1484.22)" class="st2 st22">o</text>
	<text transform="matrix(1 0 0 1 1330.26 1484.22)" class="st2 st22"> </text>
	<text transform="matrix(1 0 0 1 1337.53 1484.22)" class="st2 st22">sol</text>
	<text transform="matrix(1 0 0 1 1375.1799 1484.22)" class="st2 st22">v</text>
	<text transform="matrix(1 0 0 1 1390.48 1484.22)" class="st2 st22">e</text>
	<text transform="matrix(1 0 0 1 1406.8 1484.22)" class="st2 st22"> </text>
	<text transform="matrix(1 0 0 1 1414.0701 1484.22)" class="st2 st22">a</text>
	<text transform="matrix(1 0 0 1 1429.64 1484.22)" class="st2 st22"> </text>
	<text transform="matrix(1 0 0 1 1436.91 1484.22)" class="st2 st22">n</text>
	<text transform="matrix(1 0 0 1 1453.62 1484.22)" class="st2 st22">e</text>
	<text transform="matrix(1 0 0 1 1469.79 1484.22)" class="st2 st22">w</text>
	<text transform="matrix(1 0 0 1 1493.37 1484.22)" class="st2 st22"> </text>
	<text transform="matrix(1 0 0 1 1500.64 1484.22)" class="st2 st22">class </text>
	<text transform="matrix(1 0 0 1 801.71 1520.22)" class="st2 st22">o</text>
	<text transform="matrix(1 0 0 1 817.46 1520.22)" class="st2 st22">f</text>
	<text transform="matrix(1 0 0 1 828.89 1520.22)" class="st2 st22"> </text>
	<text transform="matrix(1 0 0 1 837.4301 1520.22)" class="st2 st22">p</text>
	<text transform="matrix(1 0 0 1 853.66 1520.22)" class="st2 st22">r</text>
	<text transform="matrix(1 0 0 1 863.17 1520.22)" class="st2 st22">oblems,</text>
	<text transform="matrix(1 0 0 1 963.72 1520.22)" class="st2 st22"> </text>
	<text transform="matrix(1 0 0 1 972.26 1520.22)" class="st2 st22">i</text>
	<text transform="matrix(1 0 0 1 979.67 1520.22)" class="st2 st22">n</text>
	<text transform="matrix(1 0 0 1 995.72 1520.22)" class="st2 st22">v</text>
	<text transform="matrix(1 0 0 1 1011.02 1520.22)" class="st2 st22">erse</text>
	<text transform="matrix(1 0 0 1 1067.9 1520.22)" class="st2 st22"> </text>
	<text transform="matrix(1 0 0 1 1076.4401 1520.22)" class="st2 st22">p</text>
	<text transform="matrix(1 0 0 1 1092.67 1520.22)" class="st2 st22">r</text>
	<text transform="matrix(1 0 0 1 1102.1801 1520.22)" class="st2 st22">oblems</text>
	<text transform="matrix(1 0 0 1 1196.3201 1520.22)" class="st2 st22"> </text>
	<text transform="matrix(1 0 0 1 1204.8501 1520.22)" class="st2 st22">or</text>
	<text transform="matrix(1 0 0 1 1231.46 1520.22)" class="st2 st22"> </text>
	<text transform="matrix(1 0 0 1 1240 1520.22)" class="st2 st22">t</text>
	<text transform="matrix(1 0 0 1 1251.1001 1520.22)" class="st2 st22">o</text>
	<text transform="matrix(1 0 0 1 1267.45 1520.22)" class="st2 st22"> </text>
	<text transform="matrix(1 0 0 1 1275.99 1520.22)" class="st2 st22">c</text>
	<text transform="matrix(1 0 0 1 1289.55 1520.22)" class="st2 st22">r</text>
	<text transform="matrix(1 0 0 1 1299.0901 1520.22)" class="st2 st22">e</text>
	<text transform="matrix(1 0 0 1 1315.41 1520.22)" class="st2 st22">a</text>
	<text transform="matrix(1 0 0 1 1330.26 1520.22)" class="st2 st22">te</text>
	<text transform="matrix(1 0 0 1 1358.13 1520.22)" class="st2 st22"> </text>
	<text transform="matrix(1 0 0 1 1366.67 1520.22)" class="st2 st22">high</text>
	<text transform="matrix(1 0 0 1 1424.27 1520.22)" class="st2 st22"> </text>
	<text transform="matrix(1 0 0 1 1432.8 1520.22)" class="st2 st22">r</text>
	<text transform="matrix(1 0 0 1 1442.3401 1520.22)" class="st2 st22">esolution </text>
	<text transform="matrix(1 0 0 1 801.71 1556.22)" class="st2 st22">solutions.</text>
</g>
<g id="Solutions">
	<text transform="matrix(1 0 0 1 30.9301 1232.45)" class="st20 st21">4   ODE solutions</text>
	
		<image style="overflow:visible;enable-background:new    ;" width="1168" height="871" xlink:href="59D98934.png"  transform="matrix(0.5312 0 0 0.5312 20.2593 1283.11)">
	</image>
</g>
<g id="Parameter_estimation">
	<g>
		<path d="M749.8,1689.8c-2.7,0-6.1-0.4-8.6-1.1c-0.5-0.1-0.9-0.3-0.9-1v-2.7c0-0.5,0.4-0.8,0.8-0.8h0.1c3.5,0.4,6.4,0.6,8.6,0.6
			c4.2,0,5.3-2.3,5.3-6.1v-0.2c0-3.7-2.3-5-8-5H741c-0.3,0-0.5-0.4-0.5-0.6v-0.1l1.4-16c0-0.4,0.5-0.8,0.9-0.8h16.3
			c0.5,0,0.9,0.4,0.9,0.9v3.4c0,0.5-0.4,0.8-0.9,0.8h-12.2l-0.7,7.5h0.8c6.9,0,14.2,1.3,14.2,9.9v0.2
			C761.4,1685.6,757.7,1689.8,749.8,1689.8L749.8,1689.8z"/>
		<path d="M836.1,1689.1c-0.7,0.2-3.6,0.7-7.1,0.7c-5.4,0-12.7-2.7-12.7-13.8v-6.6c0-11.3,7.3-13.8,12.7-13.8c3.5,0,6.4,0.5,7.1,0.7
			c0.6,0.2,1,0.4,1,1v3c0,0.5-0.2,0.9-0.9,0.9h-0.1c-1.6-0.1-4.6-0.4-7-0.4c-3.8,0-6.5,2-6.5,8.4v6.6c0,6.3,2.8,8.4,6.5,8.4
			c2.4,0,5.4-0.2,7-0.4h0.1c0.7,0,0.9,0.4,0.9,0.9v3C837.1,1688.7,836.7,1688.9,836.1,1689.1L836.1,1689.1z"/>
		<path d="M852.1,1689.8c-7.1,0-10.8-4.8-10.8-11.2v-3.6c0-6.4,3.7-11.2,10.8-11.2s10.8,4.8,10.8,11.2v3.6
			C862.8,1685,859.1,1689.8,852.1,1689.8z M856.9,1675c0-3.7-1.7-6.1-4.8-6.1s-4.8,2.4-4.8,6.1v3.6c0,3.7,1.7,6.1,4.8,6.1
			s4.8-2.4,4.8-6.1V1675z"/>
		<path d="M899.3,1689.4h-4.1c-0.5,0-0.9-0.4-0.9-0.9v-15.3c0-3.5-0.7-4.4-3.2-4.4c-0.8,0-2.6,0.3-4.2,1.1c0.1,1,0.2,2.1,0.2,3.2
			v15.3c0,0.5-0.4,0.9-0.9,0.9H882c-0.5,0-0.9-0.4-0.9-0.9v-15.3c0-3.5-0.6-4.4-3.1-4.4c-1,0-2.3,0.5-4.1,1.5v18.2
			c0,0.5-0.4,0.9-0.9,0.9h-4.1c-0.5,0-0.9-0.4-0.9-0.9V1665c0-0.5,0.4-0.9,0.9-0.9h3.9c0.5,0,0.9,0.4,0.9,0.9v0.9
			c1.9-1.2,3.8-2.2,6.4-2.2s4.2,0.8,5.3,2c2.3-1.3,4.3-2,7.4-2c6.1,0,7.5,4.2,7.5,9.4v15.3C900.2,1689,899.8,1689.4,899.3,1689.4
			L899.3,1689.4z"/>
		<path d="M916.3,1689.8c-1.1,0-2.7-0.1-4.3-0.3v8c0,0.5-0.4,0.9-0.9,0.9H907c-0.5,0-0.9-0.4-0.9-0.9v-31.3c0-0.7,0.2-0.9,1.2-1.2
			c2.8-0.7,6.2-1.2,9-1.2c7.2,0,10.8,4.3,10.8,11.3v3.5C927.1,1685.5,923.5,1689.8,916.3,1689.8L916.3,1689.8z M921.1,1675.1
			c0-3.7-1-6.4-4.8-6.4c-1.6,0-3.5,0.1-4.3,0.3v15.7c1.3,0.2,3.2,0.3,4.3,0.3c3.9,0,4.8-2.7,4.8-6.4V1675.1L921.1,1675.1z"/>
		<path d="M949.9,1689.4h-3.8c-0.5,0-0.9-0.4-0.9-0.9v-0.7c-2.1,1.3-4.2,2-6.3,2c-3.7,0-7.8-1.4-7.8-7.5v-0.2c0-5.1,3.2-7.8,11-7.8
			h2.8v-2c0-2.9-1.3-3.6-4-3.6c-2.9,0-5.8,0.2-7.3,0.4h-0.2c-0.5,0-0.8-0.1-0.8-0.8v-2.9c0-0.5,0.3-0.8,0.8-0.9
			c1.8-0.4,4.4-0.7,7.5-0.7c6.4,0,9.9,2.8,9.9,8.6v16.2C950.8,1689,950.4,1689.4,949.9,1689.4L949.9,1689.4z M944.9,1678.3h-2.8
			c-4.1,0-5,1.3-5,3.8v0.2c0,2.2,1,2.8,3.2,2.8c1.6,0,3.3-0.5,4.6-1.3V1678.3L944.9,1678.3z"/>
		<path d="M968.8,1668.8c-2.4,0-4.3,0.6-6.2,1.6v18.1c0,0.5-0.4,0.9-0.9,0.9h-4.1c-0.5,0-0.9-0.4-0.9-0.9V1665
			c0-0.5,0.4-0.9,0.9-0.9h3.9c0.5,0,0.9,0.4,0.9,0.9v0.9c2.2-1.7,4.6-2.2,6.4-2.2c0.5,0,0.9,0.4,0.9,0.9v3.2
			C969.7,1668.4,969.3,1668.8,968.8,1668.8L968.8,1668.8z"/>
		<path d="M978.9,1660.7h-4.4c-0.5,0-1-0.4-1-0.9v-4c0-0.5,0.5-0.9,1-0.9h4.4c0.5,0,0.9,0.4,0.9,0.9v4
			C979.8,1660.3,979.4,1660.7,978.9,1660.7z M978.7,1689.4h-4.1c-0.5,0-0.9-0.4-0.9-0.9V1665c0-0.5,0.4-0.9,0.9-0.9h4.1
			c0.5,0,0.9,0.4,0.9,0.9v23.5C979.6,1689,979.2,1689.4,978.7,1689.4z"/>
		<path d="M993.8,1689.8c-1.8,0-5.5-0.2-8-0.9c-0.5-0.1-0.9-0.5-0.9-1v-2.7c0-0.4,0.3-0.7,0.8-0.7h0.2c2.2,0.3,6.2,0.5,7.6,0.5
			c2.8,0,3.2-0.9,3.2-2.2c0-0.8-0.5-1.4-2-2.3l-6.2-3.8c-2.2-1.3-3.8-3.6-3.8-6.2c0-4.5,2.8-6.8,8.5-6.8c3.6,0,5.7,0.4,8,0.9
			c0.5,0.1,0.8,0.5,0.8,1v2.6c0,0.5-0.3,0.8-0.7,0.8h-0.2c-1.3-0.2-4.9-0.5-7.4-0.5c-2.2,0-3.1,0.5-3.1,1.9c0,0.7,0.7,1.2,1.8,1.8
			l5.9,3.6c3.8,2.3,4.3,4.5,4.3,6.8C1002.7,1686.7,999.7,1689.8,993.8,1689.8L993.8,1689.8z"/>
		<path d="M1017.6,1689.8c-7.1,0-10.8-4.8-10.8-11.2v-3.6c0-6.4,3.7-11.2,10.8-11.2s10.8,4.8,10.8,11.2v3.6
			C1028.4,1685,1024.7,1689.8,1017.6,1689.8z M1022.4,1675c0-3.7-1.7-6.1-4.8-6.1s-4.8,2.4-4.8,6.1v3.6c0,3.7,1.7,6.1,4.8,6.1
			s4.8-2.4,4.8-6.1V1675z"/>
		<path d="M1053.3,1689.4h-4.1c-0.5,0-0.9-0.4-0.9-0.9v-14.7c0-3.9-0.4-5-3.8-5c-1.5,0-3.2,0.6-5.1,1.6v18.1c0,0.5-0.4,0.9-0.9,0.9
			h-4.1c-0.5,0-0.9-0.4-0.9-0.9V1665c0-0.5,0.4-0.9,0.9-0.9h3.9c0.5,0,0.9,0.4,0.9,0.9v0.9c2.6-1.7,4.3-2.2,7.3-2.2
			c6.5,0,7.8,4.4,7.8,10.1v14.7C1054.3,1689,1053.8,1689.4,1053.3,1689.4L1053.3,1689.4z"/>
		<path d="M1089.7,1689.5c-1.1,0.2-2.1,0.3-3.1,0.3c-5.1,0-7.2-1.1-7.2-7.2v-14.1l-4.2-0.6c-0.5-0.1-0.9-0.4-0.9-0.9v-2
			c0-0.5,0.4-0.9,0.9-0.9h4.2v-3.7c0-0.5,0.4-0.8,0.9-0.9l4.2-0.7h0.2c0.4,0,0.7,0.2,0.7,0.7v4.6h4.1c0.5,0,0.9,0.4,0.9,0.9v2.7
			c0,0.5-0.4,0.9-0.9,0.9h-4.1v14.1c0,2.2,0.1,2.5,1.8,2.5h2.4c0.6,0,0.9,0.2,0.9,0.7v2.8
			C1090.5,1689.1,1090.3,1689.4,1089.7,1689.5L1089.7,1689.5z"/>
		<path d="M1104.2,1689.8c-7.1,0-10.8-4.8-10.8-11.2v-3.6c0-6.4,3.7-11.2,10.8-11.2s10.8,4.8,10.8,11.2v3.6
			C1114.9,1685,1111.2,1689.8,1104.2,1689.8z M1109,1675c0-3.7-1.7-6.1-4.8-6.1s-4.8,2.4-4.8,6.1v3.6c0,3.7,1.7,6.1,4.8,6.1
			s4.8-2.4,4.8-6.1V1675z"/>
		<path d="M1146.6,1689.8c-1.1,0-2.7-0.1-4.3-0.3v8c0,0.5-0.4,0.9-0.9,0.9h-4.1c-0.5,0-0.9-0.4-0.9-0.9v-31.3c0-0.7,0.2-0.9,1.2-1.2
			c2.8-0.7,6.2-1.2,9-1.2c7.2,0,10.8,4.3,10.8,11.3v3.5C1157.3,1685.5,1153.8,1689.8,1146.6,1689.8L1146.6,1689.8z M1151.4,1675.1
			c0-3.7-0.9-6.4-4.8-6.4c-1.6,0-3.5,0.1-4.3,0.3v15.7c1.3,0.2,3.2,0.3,4.3,0.3c3.9,0,4.8-2.7,4.8-6.4V1675.1L1151.4,1675.1z"/>
		<path d="M1174.4,1668.8c-2.4,0-4.3,0.6-6.2,1.6v18.1c0,0.5-0.4,0.9-0.9,0.9h-4.1c-0.5,0-0.9-0.4-0.9-0.9V1665
			c0-0.5,0.4-0.9,0.9-0.9h3.9c0.5,0,0.9,0.4,0.9,0.9v0.9c2.2-1.7,4.6-2.2,6.4-2.2c0.5,0,0.9,0.4,0.9,0.9v3.2
			C1175.3,1668.4,1174.9,1668.8,1174.4,1668.8L1174.4,1668.8z"/>
		<path d="M1198.1,1678.8h-14.7v0.1c0,2.6,1.1,5.7,5.4,5.7c3.3,0,6.4-0.3,8.3-0.4h0.1c0.4,0,0.8,0.2,0.8,0.7v3c0,0.7-0.1,1-0.9,1.2
			c-2.9,0.5-4.7,0.8-8.7,0.8c-4.5,0-10.9-2.4-10.9-11.3v-3.3c0-7,3.9-11.4,10.8-11.4s10.7,4.7,10.7,11.4v2.5
			C1199,1678.4,1198.8,1678.8,1198.1,1678.8L1198.1,1678.8z M1193.1,1674.4c0-3.5-1.9-5.5-4.7-5.5s-4.8,2-4.8,5.5v0.2h9.5V1674.4
			L1193.1,1674.4z"/>
		<path d="M1224,1665.1l-5.7,20.5c-0.9,3.3-3.3,4.2-5.6,4.2s-4.7-0.9-5.6-4.2l-5.7-20.5c0-0.1,0-0.2,0-0.3c0-0.4,0.3-0.7,0.7-0.7
			h4.5c0.4,0,0.8,0.3,0.9,0.9l4.3,18.8c0.2,0.9,0.5,1.1,0.8,1.1s0.7-0.3,0.9-1.1l4.3-18.8c0.1-0.6,0.5-0.9,0.9-0.9h4.5
			c0.4,0,0.7,0.3,0.7,0.7C1224,1664.9,1224,1665,1224,1665.1L1224,1665.1z"/>
		<path d="M1233.3,1660.7h-4.4c-0.5,0-0.9-0.4-0.9-0.9v-4c0-0.5,0.4-0.9,0.9-0.9h4.4c0.5,0,0.9,0.4,0.9,0.9v4
			C1234.2,1660.3,1233.8,1660.7,1233.3,1660.7z M1233.2,1689.4h-4.1c-0.5,0-0.9-0.4-0.9-0.9V1665c0-0.5,0.4-0.9,0.9-0.9h4.1
			c0.5,0,0.9,0.4,0.9,0.9v23.5C1234.1,1689,1233.7,1689.4,1233.2,1689.4z"/>
		<path d="M1250.1,1689.8c-7.1,0-10.8-4.8-10.8-11.2v-3.6c0-6.4,3.7-11.2,10.8-11.2s10.8,4.8,10.8,11.2v3.6
			C1260.8,1685,1257.1,1689.8,1250.1,1689.8z M1254.9,1675c0-3.7-1.7-6.1-4.8-6.1s-4.8,2.4-4.8,6.1v3.6c0,3.7,1.7,6.1,4.8,6.1
			s4.8-2.4,4.8-6.1V1675z"/>
		<path d="M1285.8,1689.4h-4.1c-0.5,0-0.9-0.4-0.9-0.9v-1c-2.3,1.5-4.2,2.2-7.1,2.2c-2.2,0-4.2-0.6-5.5-1.9
			c-1.7-1.7-2.2-4.5-2.2-8.2V1665c0-0.5,0.4-0.9,0.9-0.9h4.1c0.5,0,0.9,0.4,0.9,0.9v14.7c0,2.2,0.2,3.6,1,4.3
			c0.6,0.5,1.4,0.8,2.8,0.8c1.7,0,3.8-1.1,5.1-1.8v-18c0-0.5,0.4-0.9,0.9-0.9h4.1c0.5,0,0.9,0.4,0.9,0.9v23.5
			C1286.7,1689,1286.3,1689.4,1285.8,1689.4L1285.8,1689.4z"/>
		<path d="M1300.8,1689.8c-1.8,0-5.5-0.2-8.1-0.9c-0.5-0.1-0.9-0.5-0.9-1v-2.7c0-0.4,0.3-0.7,0.8-0.7h0.2c2.2,0.3,6.2,0.5,7.6,0.5
			c2.8,0,3.2-0.9,3.2-2.2c0-0.8-0.5-1.4-2-2.3l-6.2-3.8c-2.2-1.3-3.8-3.6-3.8-6.2c0-4.5,2.8-6.8,8.6-6.8c3.6,0,5.7,0.4,8,0.9
			c0.5,0.1,0.8,0.5,0.8,1v2.6c0,0.5-0.3,0.8-0.7,0.8h-0.2c-1.3-0.2-4.9-0.5-7.4-0.5c-2.2,0-3.1,0.5-3.1,1.9c0,0.7,0.7,1.2,1.8,1.8
			l5.9,3.6c3.8,2.3,4.3,4.5,4.3,6.8C1309.6,1686.7,1306.7,1689.8,1300.8,1689.8L1300.8,1689.8z"/>
		<path d="M1341.1,1689.8c-1.1,0-2.7-0.1-4.3-0.3v8c0,0.5-0.4,0.9-0.9,0.9h-4.1c-0.5,0-0.9-0.4-0.9-0.9v-31.3c0-0.7,0.2-0.9,1.2-1.2
			c2.8-0.7,6.2-1.2,9-1.2c7.2,0,10.8,4.3,10.8,11.3v3.5C1351.8,1685.5,1348.3,1689.8,1341.1,1689.8L1341.1,1689.8z M1345.9,1675.1
			c0-3.7-0.9-6.4-4.8-6.4c-1.6,0-3.5,0.1-4.3,0.3v15.7c1.3,0.2,3.2,0.3,4.3,0.3c3.9,0,4.8-2.7,4.8-6.4V1675.1L1345.9,1675.1z"/>
		<path d="M1374.7,1689.4h-3.8c-0.5,0-0.9-0.4-0.9-0.9v-0.7c-2.1,1.3-4.2,2-6.3,2c-3.7,0-7.8-1.4-7.8-7.5v-0.2c0-5.1,3.2-7.8,11-7.8
			h2.8v-2c0-2.9-1.3-3.6-4-3.6c-2.9,0-5.8,0.2-7.3,0.4h-0.2c-0.4,0-0.8-0.1-0.8-0.8v-2.9c0-0.5,0.3-0.8,0.9-0.9
			c1.8-0.4,4.4-0.7,7.5-0.7c6.4,0,9.9,2.8,9.9,8.6v16.2C1375.6,1689,1375.2,1689.4,1374.7,1689.4L1374.7,1689.4z M1369.7,1678.3
			h-2.8c-4.1,0-5,1.3-5,3.8v0.2c0,2.2,1,2.8,3.2,2.8c1.6,0,3.3-0.5,4.6-1.3L1369.7,1678.3L1369.7,1678.3z"/>
		<path d="M1393.6,1668.8c-2.4,0-4.3,0.6-6.2,1.6v18.1c0,0.5-0.4,0.9-0.9,0.9h-4.1c-0.5,0-0.9-0.4-0.9-0.9V1665
			c0-0.5,0.4-0.9,0.9-0.9h3.9c0.5,0,0.9,0.4,0.9,0.9v0.9c2.2-1.7,4.6-2.2,6.4-2.2c0.5,0,0.9,0.4,0.9,0.9v3.2
			C1394.5,1668.4,1394.1,1668.8,1393.6,1668.8L1393.6,1668.8z"/>
		<path d="M1415.2,1689.4h-3.8c-0.5,0-0.9-0.4-0.9-0.9v-0.7c-2.1,1.3-4.2,2-6.3,2c-3.7,0-7.8-1.4-7.8-7.5v-0.2c0-5.1,3.2-7.8,11-7.8
			h2.8v-2c0-2.9-1.3-3.6-4-3.6c-2.9,0-5.8,0.2-7.3,0.4h-0.2c-0.4,0-0.8-0.1-0.8-0.8v-2.9c0-0.5,0.3-0.8,0.9-0.9
			c1.8-0.4,4.4-0.7,7.5-0.7c6.4,0,9.9,2.8,9.9,8.6v16.2C1416.1,1689,1415.7,1689.4,1415.2,1689.4L1415.2,1689.4z M1410.1,1678.3
			h-2.8c-4.1,0-5,1.3-5,3.8v0.2c0,2.2,1,2.8,3.2,2.8c1.6,0,3.3-0.5,4.6-1.3L1410.1,1678.3L1410.1,1678.3z"/>
		<path d="M1453.3,1689.4h-4.1c-0.5,0-0.9-0.4-0.9-0.9v-15.3c0-3.5-0.7-4.4-3.2-4.4c-0.8,0-2.6,0.3-4.2,1.1c0.1,1,0.2,2.1,0.2,3.2
			v15.3c0,0.5-0.4,0.9-0.9,0.9h-4.1c-0.5,0-0.9-0.4-0.9-0.9v-15.3c0-3.5-0.6-4.4-3.1-4.4c-0.9,0-2.3,0.5-4.1,1.5v18.2
			c0,0.5-0.4,0.9-0.9,0.9h-4.1c-0.5,0-0.9-0.4-0.9-0.9V1665c0-0.5,0.4-0.9,0.9-0.9h3.9c0.5,0,0.9,0.4,0.9,0.9v0.9
			c1.9-1.2,3.8-2.2,6.4-2.2s4.2,0.8,5.3,2c2.3-1.3,4.3-2,7.4-2c6.1,0,7.5,4.2,7.5,9.4v15.3C1454.2,1689,1453.8,1689.4,1453.3,1689.4
			L1453.3,1689.4z"/>
		<path d="M1472.5,1689.5c-1.1,0.2-2.1,0.3-3.1,0.3c-5.1,0-7.2-1.1-7.2-7.2v-14.1l-4.2-0.6c-0.5-0.1-0.9-0.4-0.9-0.9v-2
			c0-0.5,0.4-0.9,0.9-0.9h4.2v-3.7c0-0.5,0.4-0.8,0.9-0.9l4.2-0.7h0.2c0.4,0,0.7,0.2,0.7,0.7v4.6h4.1c0.5,0,0.9,0.4,0.9,0.9v2.7
			c0,0.5-0.4,0.9-0.9,0.9h-4.1v14.1c0,2.2,0.1,2.5,1.8,2.5h2.4c0.6,0,0.9,0.2,0.9,0.7v2.8
			C1473.4,1689.1,1473.1,1689.4,1472.5,1689.5L1472.5,1689.5z"/>
		<path d="M1497.3,1678.8h-14.7v0.1c0,2.6,1.1,5.7,5.4,5.7c3.3,0,6.4-0.3,8.3-0.4h0.1c0.4,0,0.8,0.2,0.8,0.7v3c0,0.7-0.1,1-0.9,1.2
			c-2.9,0.5-4.7,0.8-8.7,0.8c-4.5,0-10.9-2.4-10.9-11.3v-3.3c0-7,3.9-11.4,10.8-11.4s10.7,4.7,10.7,11.4v2.5
			C1498.2,1678.4,1497.9,1678.8,1497.3,1678.8L1497.3,1678.8z M1492.2,1674.4c0-3.5-1.9-5.5-4.7-5.5s-4.8,2-4.8,5.5v0.2h9.5V1674.4z
			"/>
		<path d="M1515.4,1668.8c-2.4,0-4.3,0.6-6.2,1.6v18.1c0,0.5-0.4,0.9-0.9,0.9h-4.1c-0.5,0-0.9-0.4-0.9-0.9V1665
			c0-0.5,0.4-0.9,0.9-0.9h3.9c0.5,0,0.9,0.4,0.9,0.9v0.9c2.2-1.7,4.6-2.2,6.4-2.2c0.5,0,0.9,0.4,0.9,0.9v3.2
			C1516.3,1668.4,1515.9,1668.8,1515.4,1668.8L1515.4,1668.8z"/>
		<path d="M1539.1,1678.8h-14.7v0.1c0,2.6,1.1,5.7,5.4,5.7c3.3,0,6.4-0.3,8.3-0.4h0.1c0.4,0,0.8,0.2,0.8,0.7v3c0,0.7-0.1,1-0.9,1.2
			c-2.9,0.5-4.7,0.8-8.7,0.8c-4.5,0-10.9-2.4-10.9-11.3v-3.3c0-7,3.9-11.4,10.8-11.4s10.7,4.7,10.7,11.4v2.5
			C1540,1678.4,1539.7,1678.8,1539.1,1678.8L1539.1,1678.8z M1534,1674.4c0-3.5-1.9-5.5-4.7-5.5s-4.8,2-4.8,5.5v0.2h9.5V1674.4
			L1534,1674.4z"/>
		<path d="M1553.3,1689.8c-1.8,0-5.5-0.2-8.1-0.9c-0.5-0.1-0.8-0.5-0.8-1v-2.7c0-0.4,0.3-0.7,0.8-0.7h0.2c2.2,0.3,6.2,0.5,7.6,0.5
			c2.8,0,3.2-0.9,3.2-2.2c0-0.8-0.5-1.4-2-2.3l-6.2-3.8c-2.2-1.3-3.8-3.6-3.8-6.2c0-4.5,2.8-6.8,8.6-6.8c3.7,0,5.7,0.4,8,0.9
			c0.5,0.1,0.8,0.5,0.8,1v2.6c0,0.5-0.3,0.8-0.7,0.8h-0.2c-1.3-0.2-4.9-0.5-7.4-0.5c-2.2,0-3.1,0.5-3.1,1.9c0,0.7,0.7,1.2,1.8,1.8
			l5.9,3.6c3.8,2.3,4.3,4.5,4.3,6.8C1562.1,1686.7,1559.2,1689.8,1553.3,1689.8L1553.3,1689.8z"/>
		<path d="M1580,1689.5c-1.1,0.2-2.1,0.3-3.1,0.3c-5.1,0-7.2-1.1-7.2-7.2v-14.1l-4.2-0.6c-0.5-0.1-0.9-0.4-0.9-0.9v-2
			c0-0.5,0.4-0.9,0.9-0.9h4.2v-3.7c0-0.5,0.4-0.8,0.9-0.9l4.2-0.7h0.2c0.4,0,0.7,0.2,0.7,0.7v4.6h4.1c0.5,0,0.9,0.4,0.9,0.9v2.7
			c0,0.5-0.4,0.9-0.9,0.9h-4.1v14.1c0,2.2,0.1,2.5,1.8,2.5h2.4c0.6,0,0.9,0.2,0.9,0.7v2.8C1580.8,1689.1,1580.5,1689.4,1580,1689.5
			L1580,1689.5z"/>
		<path d="M1590.2,1660.7h-4.4c-0.5,0-0.9-0.4-0.9-0.9v-4c0-0.5,0.4-0.9,0.9-0.9h4.4c0.5,0,0.9,0.4,0.9,0.9v4
			C1591.1,1660.3,1590.7,1660.7,1590.2,1660.7z M1590.1,1689.4h-4.1c-0.5,0-0.9-0.4-0.9-0.9V1665c0-0.5,0.4-0.9,0.9-0.9h4.1
			c0.5,0,0.9,0.4,0.9,0.9v23.5C1591,1689,1590.5,1689.4,1590.1,1689.4z"/>
		<path d="M1605.7,1677.8h-8.8c-0.5,0-0.9-0.3-0.9-0.8v-2.8c0-0.5,0.4-0.9,0.9-0.9h8.8c0.5,0,0.9,0.4,0.9,0.9v2.8
			C1606.5,1677.5,1606.2,1677.8,1605.7,1677.8z"/>
		<path d="M770.9,1743.4h-4.1c-0.5,0-0.9-0.4-0.9-0.9v-15.3c0-3.5-0.7-4.4-3.2-4.4c-0.8,0-2.6,0.3-4.2,1.1c0.1,1,0.2,2.1,0.2,3.2
			v15.3c0,0.5-0.4,0.9-0.9,0.9h-4.1c-0.5,0-0.9-0.4-0.9-0.9v-15.3c0-3.5-0.6-4.4-3.1-4.4c-0.9,0-2.3,0.5-4.1,1.5v18.2
			c0,0.5-0.4,0.9-0.9,0.9h-4.1c-0.5,0-0.9-0.4-0.9-0.9V1719c0-0.5,0.4-0.9,0.9-0.9h3.9c0.5,0,0.9,0.4,0.9,0.9v0.9
			c1.9-1.2,3.8-2.2,6.4-2.2s4.2,0.8,5.3,2c2.3-1.3,4.3-2,7.4-2c6.1,0,7.5,4.2,7.5,9.4v15.3C771.8,1743,771.4,1743.4,770.9,1743.4
			L770.9,1743.4z"/>
		<path d="M795.5,1743.4h-3.8c-0.5,0-0.9-0.4-0.9-0.9v-0.7c-2.1,1.3-4.2,2-6.3,2c-3.7,0-7.8-1.4-7.8-7.5v-0.2c0-5.1,3.2-7.8,11-7.8
			h2.8v-2c0-2.9-1.3-3.6-4-3.6c-2.9,0-5.8,0.2-7.3,0.4H779c-0.5,0-0.8-0.1-0.8-0.8v-2.9c0-0.5,0.3-0.8,0.9-0.9
			c1.8-0.4,4.4-0.7,7.5-0.7c6.4,0,9.9,2.8,9.9,8.6v16.2C796.5,1743,796.1,1743.4,795.5,1743.4L795.5,1743.4z M790.5,1732.3h-2.8
			c-4.1,0-5,1.3-5,3.8v0.2c0,2.2,1,2.8,3.2,2.8c1.6,0,3.3-0.5,4.6-1.3V1732.3z"/>
		<path d="M814.4,1743.5c-1.1,0.2-2.1,0.3-3.1,0.3c-5.1,0-7.2-1.1-7.2-7.2v-14.1l-4.2-0.6c-0.5-0.1-0.9-0.4-0.9-0.9v-2
			c0-0.5,0.4-0.9,0.9-0.9h4.2v-3.7c0-0.5,0.4-0.8,0.9-0.9l4.2-0.7h0.2c0.4,0,0.7,0.2,0.7,0.7v4.6h4c0.5,0,0.9,0.4,0.9,0.9v2.7
			c0,0.5-0.4,0.9-0.9,0.9h-4v14.1c0,2.2,0.1,2.5,1.8,2.5h2.4c0.6,0,0.9,0.2,0.9,0.7v2.8C815.2,1743.1,814.9,1743.4,814.4,1743.5
			L814.4,1743.5z"/>
		<path d="M824.6,1714.7h-4.4c-0.5,0-1-0.4-1-0.9v-4c0-0.5,0.5-0.9,1-0.9h4.4c0.5,0,0.9,0.4,0.9,0.9v4
			C825.5,1714.3,825.1,1714.7,824.6,1714.7z M824.4,1743.4h-4.1c-0.5,0-0.9-0.4-0.9-0.9V1719c0-0.5,0.4-0.9,0.9-0.9h4.1
			c0.5,0,0.9,0.4,0.9,0.9v23.5C825.3,1743,824.9,1743.4,824.4,1743.4z"/>
		<path d="M841.3,1743.8c-7.1,0-10.8-4.8-10.8-11.2v-3.6c0-6.4,3.7-11.2,10.8-11.2s10.8,4.8,10.8,11.2v3.6
			C852.1,1739,848.4,1743.8,841.3,1743.8z M846.1,1729c0-3.7-1.7-6.1-4.8-6.1s-4.8,2.4-4.8,6.1v3.6c0,3.7,1.7,6.1,4.8,6.1
			s4.8-2.4,4.8-6.1V1729z"/>
		<path d="M877,1743.4h-4.1c-0.5,0-0.9-0.4-0.9-0.9v-14.7c0-3.9-0.4-5-3.8-5c-1.5,0-3.2,0.6-5.1,1.6v18.1c0,0.5-0.4,0.9-0.9,0.9H858
			c-0.5,0-0.9-0.4-0.9-0.9V1719c0-0.5,0.4-0.9,0.9-0.9h3.9c0.5,0,0.9,0.4,0.9,0.9v0.9c2.6-1.7,4.3-2.2,7.3-2.2
			c6.5,0,7.8,4.4,7.8,10.1v14.7C877.9,1743,877.5,1743.4,877,1743.4L877,1743.4z"/>
		<path d="M892,1743.8c-1.8,0-5.5-0.2-8-0.9c-0.5-0.1-0.8-0.5-0.8-1v-2.7c0-0.4,0.3-0.7,0.8-0.7h0.2c2.2,0.3,6.2,0.5,7.6,0.5
			c2.8,0,3.2-0.9,3.2-2.2c0-0.8-0.5-1.4-2-2.3l-6.2-3.8c-2.2-1.3-3.8-3.6-3.8-6.2c0-4.5,2.8-6.8,8.5-6.8c3.6,0,5.7,0.4,8,0.9
			c0.5,0.1,0.8,0.5,0.8,1v2.6c0,0.5-0.3,0.8-0.7,0.8h-0.2c-1.3-0.2-4.9-0.5-7.4-0.5c-2.2,0-3.1,0.5-3.1,1.9c0,0.7,0.7,1.2,1.8,1.8
			l5.9,3.6c3.8,2.3,4.3,4.5,4.3,6.8C900.9,1740.7,897.9,1743.8,892,1743.8L892,1743.8z"/>
	</g>
	
		<image style="overflow:visible;enable-background:new    ;" width="886" height="524" xlink:href="59D98935.png"  transform="matrix(0.5667 0 0 0.5667 740.0706 1767.42)">
	</image>
</g>
<g id="Summary">
	<text transform="matrix(1 0 0 1 0 2107.25)" class="st20 st21">Summary</text>
</g>
<g id="Regularisation">
	<text transform="matrix(1 0 0 1 807.16 370.2)" class="st20 st21">1   Nondimensionaliz</text>
	<text transform="matrix(1 0 0 1 1239.96 370.2)" class="st20 st21">a</text>
	<text transform="matrix(1 0 0 1 1263.36 370.2)" class="st20 st21">tion </text>
	<text transform="matrix(1 0 0 1 1357.37 370.2)" class="st20 st21">o</text>
	<text transform="matrix(1 0 0 1 1382.3 370.2)" class="st20 st21">f ODE</text>
	<text transform="matrix(1 0 0 1 1497.85 370.2)" class="st20 st21 st28">’</text>
	<text transform="matrix(1 0 0 1 1505.0601 370.2)" class="st20 st21">s</text>
	<text transform="matrix(1 0 0 1 807.16 406.2)" class="st2 st22">The</text>
	<text transform="matrix(1 0 0 1 857.89 406.2)" class="st2 st22 st29"> </text>
	<text transform="matrix(1 0 0 1 867.59 406.2)" class="st2 st22">M</text>
	<text transform="matrix(1 0 0 1 889.88 406.2)" class="st2 st22">VP-model</text>
	<text transform="matrix(1 0 0 1 1017.11 406.2)" class="st2 st22 st29"> </text>
	<text transform="matrix(1 0 0 1 1026.8099 406.2)" class="st2 st22">c</text>
	<text transform="matrix(1 0 0 1 1039.29 406.2)" class="st2 st22">onsi</text>
	<text transform="matrix(1 0 0 1 1093.74 406.2)" class="st2 st22">s</text>
	<text transform="matrix(1 0 0 1 1107.33 406.2)" class="st2 st22">ts</text>
	<text transform="matrix(1 0 0 1 1132.86 406.2)" class="st2 st22 st29"> </text>
	<text transform="matrix(1 0 0 1 1142.5599 406.2)" class="st2 st22">o</text>
	<text transform="matrix(1 0 0 1 1158.3099 406.2)" class="st2 st22">f</text>
	<text transform="matrix(1 0 0 1 1169.74 406.2)" class="st2 st22 st29"> </text>
	<text transform="matrix(1 0 0 1 1179.4399 406.2)" class="st2 st22">7</text>
	<text transform="matrix(1 0 0 1 1197.59 406.2)" class="st2 st22 st29"> </text>
	<text transform="matrix(1 0 0 1 1207.29 406.2)" class="st2 st22">c</text>
	<text transform="matrix(1 0 0 1 1219.78 406.2)" class="st2 st22">oupled</text>
	<text transform="matrix(1 0 0 1 1308.9299 406.2)" class="st2 st22 st29"> </text>
	<text transform="matrix(1 0 0 1 1318.64 406.2)" class="st2 st22">ODE’s</text>
	<text transform="matrix(1 0 0 1 1393.78 406.2)" class="st2 st22 st29"> </text>
	<text transform="matrix(1 0 0 1 1403.49 406.2)" class="st2 st22">describing</text>
	<text transform="matrix(1 0 0 1 1538.36 406.2)" class="st2 st22 st29"> </text>
	<text transform="matrix(1 0 0 1 1548.0699 406.2)" class="st2 st22">7 </text>
	<text transform="matrix(1 0 0 1 807.16 442.2)" class="st2 st22">virtual</text>
	<text transform="matrix(1 0 0 1 891.88 442.2)" class="st2 st22 st30"> </text>
	<text transform="matrix(1 0 0 1 910.65 442.2)" class="st2 st22">c</text>
	<text transform="matrix(1 0 0 1 923.13 442.2)" class="st2 st22">ompartme</text>
	<text transform="matrix(1 0 0 1 1057.28 442.2)" class="st2 st22">n</text>
	<text transform="matrix(1 0 0 1 1073.3999 442.2)" class="st2 st22">ts.</text>
	<text transform="matrix(1 0 0 1 1105.34 442.2)" class="st2 st22 st30"> </text>
	<text transform="matrix(1 0 0 1 1124.11 442.2)" class="st2 st22">Each</text>
	<text transform="matrix(1 0 0 1 1186.48 442.2)" class="st2 st22 st30"> </text>
	<text transform="matrix(1 0 0 1 1205.25 442.2)" class="st2 st22">c</text>
	<text transform="matrix(1 0 0 1 1217.73 442.2)" class="st2 st22">ompartme</text>
	<text transform="matrix(1 0 0 1 1351.8899 442.2)" class="st2 st22">n</text>
	<text transform="matrix(1 0 0 1 1368 442.2)" class="st2 st22">t</text>
	<text transform="matrix(1 0 0 1 1379.55 442.2)" class="st2 st22 st30"> </text>
	<text transform="matrix(1 0 0 1 1398.3199 442.2)" class="st2 st22">ta</text>
	<text transform="matrix(1 0 0 1 1425.4399 442.2)" class="st2 st22">k</text>
	<text transform="matrix(1 0 0 1 1439.27 442.2)" class="st2 st22">es</text>
	<text transform="matrix(1 0 0 1 1469.5699 442.2)" class="st2 st22 st30"> </text>
	<text transform="matrix(1 0 0 1 1488.34 442.2)" class="st2 st22">wildly </text>
	<text transform="matrix(1 0 0 1 807.16 478.2)" class="st2 st22">di</text>
	<text transform="matrix(1 0 0 1 830.8 478.2)" class="st2 st22">ff</text>
	<text transform="matrix(1 0 0 1 851.2 478.2)" class="st2 st22">e</text>
	<text transform="matrix(1 0 0 1 867.52 478.2)" class="st2 st22">r</text>
	<text transform="matrix(1 0 0 1 877.06 478.2)" class="st2 st22">e</text>
	<text transform="matrix(1 0 0 1 893.38 478.2)" class="st2 st22">n</text>
	<text transform="matrix(1 0 0 1 909.49 478.2)" class="st2 st22">t</text>
	<text transform="matrix(1 0 0 1 921.04 478.2)" class="st2 st22 st27"> </text>
	<text transform="matrix(1 0 0 1 937.26 478.2)" class="st2 st22">v</text>
	<text transform="matrix(1 0 0 1 952.53 478.2)" class="st2 st22">alues,</text>
	<text transform="matrix(1 0 0 1 1028.85 478.2)" class="st2 st22 st27"> </text>
	<text transform="matrix(1 0 0 1 1045.0699 478.2)" class="st2 st22">which</text>
	<text transform="matrix(1 0 0 1 1123.04 478.2)" class="st2 st22 st27"> </text>
	<text transform="matrix(1 0 0 1 1139.26 478.2)" class="st2 st22">hinders</text>
	<text transform="matrix(1 0 0 1 1236.88 478.2)" class="st2 st22 st27"> </text>
	<text transform="matrix(1 0 0 1 1253.1 478.2)" class="st2 st22">n</text>
	<text transform="matrix(1 0 0 1 1269.8099 478.2)" class="st2 st22">e</text>
	<text transform="matrix(1 0 0 1 1285.23 478.2)" class="st2 st22">t</text>
	<text transform="matrix(1 0 0 1 1296.78 478.2)" class="st2 st22">w</text>
	<text transform="matrix(1 0 0 1 1319.85 478.2)" class="st2 st22">ork</text>
	<text transform="matrix(1 0 0 1 1361.34 478.2)" class="st2 st22 st27"> </text>
	<text transform="matrix(1 0 0 1 1377.5601 478.2)" class="st2 st22">learning,</text>
	<text transform="matrix(1 0 0 1 1491.05 478.2)" class="st2 st22 st27"> </text>
	<text transform="matrix(1 0 0 1 1507.27 478.2)" class="st2 st22">thus </text>
	<text transform="matrix(1 0 0 1 807.16 514.2)" class="st20 st22">non-dimensionaliztion</text>
	<text transform="matrix(1 0 0 1 1115.49 514.2)" class="st2 st22 st31"> </text>
	<text transform="matrix(1 0 0 1 1132.4299 514.2)" class="st20 st22">[3]</text>
	<text transform="matrix(1 0 0 1 1172.6899 514.2)" class="st2 st22 st31">  </text>
	<text transform="matrix(1 0 0 1 1206.5599 514.2)" class="st2 st22">was</text>
	<text transform="matrix(1 0 0 1 1259.6899 514.2)" class="st2 st22 st31"> </text>
	<text transform="matrix(1 0 0 1 1276.63 514.2)" class="st2 st22">impleme</text>
	<text transform="matrix(1 0 0 1 1388.1 514.2)" class="st2 st22">n</text>
	<text transform="matrix(1 0 0 1 1404.21 514.2)" class="st2 st22">ted</text>
	<text transform="matrix(1 0 0 1 1448.3101 514.2)" class="st2 st22 st31"> </text>
	<text transform="matrix(1 0 0 1 1465.25 514.2)" class="st2 st22">t</text>
	<text transform="matrix(1 0 0 1 1476.35 514.2)" class="st2 st22">o</text>
	<text transform="matrix(1 0 0 1 1492.7 514.2)" class="st2 st22 st31"> </text>
	<text transform="matrix(1 0 0 1 1509.6399 514.2)" class="st2 st22">help </text>
	<text transform="matrix(1 0 0 1 807.16 550.2)" class="st2 st22">normali</text>
	<text transform="matrix(1 0 0 1 904.72 550.2)" class="st2 st22">z</text>
	<text transform="matrix(1 0 0 1 918.61 550.2)" class="st2 st22">e the ODE’s.</text>
</g>
<g id="PINN_Figure">
	<rect x="767.6" y="868.3" class="st32" width="134.1" height="107.2"/>
	<path class="st32" d="M1095.2,1028.8c0,19.5-15.8,35.3-35.3,35.3s-35.3-15.8-35.3-35.3s15.8-35.3,35.3-35.3
		C1079.4,993.5,1095.2,1009.3,1095.2,1028.8z"/>
	<path class="st32" d="M1095.2,1128.5c0,19.5-15.8,35.3-35.3,35.3s-35.3-15.8-35.3-35.3s15.8-35.3,35.3-35.3
		C1079.4,1093.2,1095.2,1109,1095.2,1128.5z"/>
	<g>
		<polyline class="st33" points="902.8,921.9 940.2,921.9 980.8,921.9 		"/>
		<path d="M998.9,921.9c-8.5,3.2-19.1,8.5-25.6,14.3l5.2-14.3l-5.2-14.3C979.8,913.3,990.4,918.7,998.9,921.9z"/>
	</g>
	<rect x="1003.2" y="696.1" class="st32" width="113.4" height="85"/>
	<rect x="1375.2" y="1036.8" class="st32" width="113.4" height="85"/>
	<g>
		<line class="st33" x1="1152.1" y1="922.8" x2="1189.6" y2="922.8"/>
		<path d="M1207.7,922.8c-8.5,3.2-19.1,8.5-25.6,14.3l5.2-14.3l-5.2-14.3C1188.6,914.3,1199.2,919.7,1207.7,922.8z"/>
	</g>
	<g>
		<line class="st33" x1="1313.1" y1="920.6" x2="1375.9" y2="920.6"/>
		<path d="M1394,920.6c-8.5,3.2-19.1,8.5-25.6,14.3l5.2-14.3l-5.2-14.3C1375,912,1385.5,917.4,1394,920.6z"/>
	</g>
	<g>
		<polyline class="st34" points="1314.9,1076.3 1314.9,1079.3 1311.9,1079.3 		"/>
		<line class="st35" x1="1305.9" y1="1079.3" x2="971.3" y2="1079.3"/>
		<polyline class="st34" points="968.2,1079.3 965.2,1079.3 965.2,1076.3 		"/>
		<line class="st36" x1="965.2" y1="1070.4" x2="965.2" y2="874.2"/>
		<polyline class="st34" points="965.2,871.3 965.2,868.3 968.2,868.3 		"/>
		<line class="st35" x1="974.3" y1="868.3" x2="1308.9" y2="868.3"/>
		<polyline class="st34" points="1311.9,868.3 1314.9,868.3 1314.9,871.3 		"/>
		<line class="st36" x1="1314.9" y1="877.1" x2="1314.9" y2="1073.3"/>
	</g>
	<text transform="matrix(1 0 0 1 961.39 856.44)" class="st2 st22">P</text>
	<text transform="matrix(1 0 0 1 979.18 856.44)" class="st2 st22">h</text>
	<text transform="matrix(1 0 0 1 995.29 856.44)" class="st2 st22">ysics I</text>
	<text transform="matrix(1 0 0 1 1075.66 856.44)" class="st2 st22">n</text>
	<text transform="matrix(1 0 0 1 1091.77 856.44)" class="st2 st22">f</text>
	<text transform="matrix(1 0 0 1 1102.54 856.44)" class="st2 st22">ormed </text>
	<text transform="matrix(1 0 0 1 1193.05 856.44)" class="st2 st22">P</text>
	<text transform="matrix(1 0 0 1 1210.15 856.44)" class="st2 st22">art</text>
	<g>
		<polyline class="st33" points="983.4,738.6 950.9,738.6 950.9,921.9 		"/>
		<path d="M1001.5,738.6c-8.5-3.2-19.1-8.5-25.6-14.3l5.2,14.3l-5.2,14.3C982.4,747.2,992.9,741.8,1001.5,738.6z"/>
	</g>
	<rect x="767.6" y="701.5" class="st33" width="134.1" height="85"/>
	<g>
		<rect x="999.7" y="886.2" class="st32" width="150.6" height="77.6"/>
		<g>
			<path d="M1034.1,931.2c-1.4,0-2.7,0-4.1,0c-0.2,0-0.3,0-0.4,0c-0.2-0.1-0.3-0.2-0.4-0.3c0.2-0.1,0.3-0.4,0.4-0.4
				c0.4-0.1,0.9,0,1.3-0.1c0.8-0.1,0.9-0.2,1.1-1c0.5-2,1-4,1.5-6c0.6-2.5,1.2-5,1.8-7.4c0.2-0.7,0.1-0.8-0.6-0.8
				c-0.4,0-0.8,0-1.2-0.1c-0.2,0-0.3-0.2-0.4-0.3c0.1-0.1,0.3-0.3,0.4-0.4c0.1-0.1,0.3,0,0.5,0c2.6,0,5.1,0.1,7.7,0
				c4.1-0.1,6.3,2.8,6.2,6.3c-0.1,3.5-1.7,6.3-4.4,8.5c-1.8,1.5-3.9,2.2-6.2,2.1C1036.3,931.2,1035.2,931.2,1034.1,931.2
				L1034.1,931.2z M1036.2,930.5c0.5,0,1,0,1.4,0c1.3,0,2.5-0.4,3.6-1c1.3-0.8,2.2-1.8,2.9-3.1c1.1-2.2,1.7-4.4,1.8-6.9
				c0-2.7-1.6-4.3-4.3-4.4c-1.1,0-2.1,0-3.2,0c-0.6,0-0.8,0.2-1,0.8c-1.2,4.7-2.3,9.3-3.5,14c-0.1,0.5,0,0.6,0.5,0.6
				C1035,930.5,1035.6,930.5,1036.2,930.5L1036.2,930.5z"/>
			<path d="M1057.2,922.2c1.3-0.1,2.5-0.1,3.8-0.2c0.6-0.1,1-0.5,1.3-1c0.2-0.4,0.3-0.9,0.5-1.4c0.1-0.1,0.2-0.2,0.4-0.3
				c0.1,0.2,0.2,0.3,0.2,0.4c-0.4,1.9-0.9,3.8-1.4,5.6c0,0.2-0.3,0.4-0.4,0.4c-0.3,0-0.2-0.3-0.2-0.5c0.1-0.3,0.1-0.7,0.2-1
				c0.1-0.8-0.2-1.1-0.9-1.2c-0.2,0-0.5-0.1-0.8-0.1c-0.9,0-1.9,0-2.8,0c-0.3,1.2-0.6,2.5-0.9,3.7c-0.3,1.1-0.5,2.2-0.8,3.3
				c-0.1,0.4,0,0.6,0.4,0.5c2,0,4,0,6-0.2c1.6-0.1,2.7-1.1,3.5-2.5c0.5-0.8,0.8-1.7,1.3-2.5c0.1-0.2,0.2-0.5,0.5-0.3
				c0.1,0,0.1,0.4,0.1,0.5c-0.7,1.8-1.5,3.6-2.2,5.3c-0.2,0.4-0.5,0.4-0.8,0.4c-2.4,0-4.8,0-7.3,0c-1.8,0-3.6,0-5.4,0
				c-0.2,0-0.3,0-0.4,0c-0.1-0.1-0.2-0.2-0.4-0.3c0.1-0.1,0.2-0.4,0.4-0.4c0.4-0.1,0.9,0,1.3-0.1c0.8-0.1,1-0.2,1.2-1
				c0.6-2.5,1.3-5.1,1.9-7.6c0.5-1.9,0.9-3.8,1.4-5.7c0.1-0.6,0.1-0.7-0.5-0.8c-0.4,0-0.8,0-1.2-0.1c-0.2,0-0.3-0.2-0.4-0.3
				c0.1-0.2,0.3-0.3,0.4-0.4c0.1-0.1,0.3,0,0.4,0c4.1,0,8.2,0,12.2,0c0.8,0,0.9,0,0.8,0.9c-0.2,1.3-0.3,2.6-0.5,3.9
				c0,0.2,0,0.3-0.1,0.4s-0.2,0.2-0.3,0.3c-0.1-0.1-0.2-0.2-0.2-0.4c0-0.4,0.1-0.7,0.1-1.1c0-0.5,0-1-0.1-1.5
				c-0.2-1-0.9-1.6-2.2-1.7c-1.8-0.1-3.5-0.1-5.2-0.1c-0.4,0-0.8,0.1-0.9,0.7c-0.5,2-1,4-1.5,6.1
				C1057.2,921.9,1057.2,922,1057.2,922.2L1057.2,922.2z"/>
			<path d="M1018.8,914.3c1.3,0,2.6,0,3.9,0c0.8,0,1.5,0.2,2.2,0.4c2.5,0.9,3.3,3.5,1.7,5.7c-1.5,2-3.6,2.9-6.1,3
				c-1.3,0-2.6,0-3.9,0c-0.3,0-0.4,0.1-0.5,0.4c-0.5,1.9-1,3.9-1.4,5.8c-0.1,0.6,0,0.7,0.5,0.8c0.4,0,0.8,0,1.2,0.1
				c0.2,0,0.3,0.2,0.4,0.3c-0.1,0.2-0.3,0.3-0.4,0.5c-0.1,0-0.2,0-0.3,0c-1.9,0-3.8,0-5.7,0c-0.1,0-0.2,0-0.3,0
				c-0.2-0.1-0.3-0.2-0.5-0.3c0.2-0.1,0.3-0.4,0.5-0.4c0.4-0.1,0.9,0,1.3-0.1c0.7-0.1,0.9-0.2,1.1-1c0.4-1.7,0.9-3.5,1.3-5.2
				c0.7-2.8,1.4-5.5,2-8.2c0.2-0.7,0.1-0.8-0.6-0.9c-0.4,0-0.8,0-1.2-0.1c-0.1,0-0.3-0.2-0.3-0.3c0-0.2,0.2-0.3,0.3-0.4
				c0.1-0.1,0.3,0,0.4,0C1016,914.3,1017.4,914.3,1018.8,914.3L1018.8,914.3z M1016.4,922.7c1.4,0,2.8,0.1,4.2,0
				c1.9-0.1,3.5-1,4.1-2.9c0.2-0.5,0.3-1.1,0.4-1.7c0.2-1.6-0.4-2.6-2-2.8c-1.3-0.2-2.7-0.1-4.1-0.1c-0.5,0-0.7,0.2-0.8,0.7
				C1017.6,918.1,1017,920.4,1016.4,922.7L1016.4,922.7z"/>
			<path d="M1116.8,924c-1.4,1.6-2.7,3.1-4,4.7c-0.7,0.8-1.3,1.6-2,2.3c-0.2,0.2-0.4,0.4-0.6,0.5c-0.3,0-0.6,0-0.8-0.2
				c-0.2-0.2-0.2-0.5-0.1-0.8c0.1-0.2,0.3-0.4,0.4-0.5c2.1-2.1,4.3-4.2,6.4-6.3c0.2-0.2,0.3-0.5,0.2-0.8c-0.8-2.2-1.6-4.4-2.3-6.5
				c-0.1-0.3-0.2-0.5-0.3-0.8c-0.2-0.5-0.5-0.8-1-0.9c-0.1,0-0.2-0.2-0.3-0.3c0.1-0.1,0.3-0.2,0.4-0.2c1.3,0,2.6,0.4,3.1,2
				c1.6,4.6,3.3,9.3,5,13.9c0.1,0.4,0.3,0.7,0.5,1.1c0.2,0.3,0.2,0.5-0.2,0.5c-1.3,0.1-1.7-0.1-2.1-1.3c-0.7-1.9-1.4-3.8-2.1-5.7
				C1116.9,924.4,1116.8,924.2,1116.8,924L1116.8,924z"/>
			<path d="M1091.4,929.9c-0.2,0.2-0.3,0.4-0.5,0.5c-1,1-2.5,1.4-3.8,0.8c-1.3-0.5-2-1.9-1.6-3.6c0.4-1.5,0.9-3,1.4-4.5
				c0.2-0.5,0.3-1.1,0.3-1.6c0.1-0.6-0.3-1-0.9-0.7c-0.5,0.2-1,0.6-1.3,1c-0.4,0.5-0.6,1.2-0.8,1.8c-0.1,0.2-0.1,0.3-0.2,0.5
				c-0.1,0.1-0.3,0.2-0.4,0.2s-0.2-0.2-0.2-0.3c0.3-1.2,0.8-2.2,1.7-3.1c0.8-0.7,1.9-0.8,2.7-0.3c0.8,0.5,1.1,1.5,0.7,2.5
				c-0.4,1.3-0.9,2.5-1.3,3.8c-0.2,0.8-0.3,1.7-0.3,2.6c0.1,1.1,0.8,1.6,1.9,1.3c1.3-0.3,2.1-1.1,2.5-2.4c0.6-2.3,1.2-4.6,1.7-6.9
				c0.1-0.2,0.1-0.5,0.2-0.7c0.2-0.4,0.7-0.5,1.1-0.4c0.4,0.2,0.4,0.5,0.3,0.9c-0.5,1.9-0.9,3.8-1.4,5.6c-0.2,0.8-0.4,1.6-0.5,2.5
				c-0.1,0.7,0.1,1.2,0.5,1.3c0.4,0.2,1-0.1,1.3-0.7c0.3-0.7,0.6-1.5,0.8-2.3c0.1-0.2,0.1-0.5,0.4-0.4c0.1,0,0.2,0.3,0.1,0.5
				c-0.2,0.7-0.3,1.4-0.6,2c-0.3,0.8-0.9,1.5-1.9,1.5s-1.7-0.5-2.1-1.4C1091.4,930,1091.4,930,1091.4,929.9L1091.4,929.9z"/>
			<path d="M1081.1,912.7c0.1,0.1,0.1,0.2,0.1,0.3s-0.1,0.2-0.2,0.2c-2,2-3.1,4.3-3.6,7c-0.8,4.2-0.7,8.4,0.9,12.5
				c0.6,1.5,1.4,2.8,2.5,3.9c0.1,0.1,0.2,0.2,0.2,0.3c0.1,0.1,0.1,0.3,0.1,0.4c-0.2,0-0.4,0-0.5,0c-1.2-0.8-2.1-1.9-2.8-3.2
				c-1.5-2.4-2.2-5-2.3-7.8c-0.2-3,0.2-5.9,1.4-8.7c0.8-1.8,1.9-3.4,3.5-4.7c0.1-0.1,0.3-0.2,0.4-0.3
				C1081,912.7,1081,912.7,1081.1,912.7L1081.1,912.7z"/>
			<path d="M1140.2,924.9c-0.1,3.4-0.6,6.4-2.3,9.1c-0.7,1.1-1.6,2-2.4,3c-0.1,0.1-0.3,0.3-0.4,0.3c-0.1,0.1-0.3,0.1-0.5,0.1
				c0.1-0.2,0.1-0.3,0.2-0.5c0.3-0.4,0.7-0.8,1-1.2c1.5-2,2.4-4.2,2.8-6.7c0.5-2.9,0.4-5.8-0.1-8.6c-0.4-2.2-1.2-4.3-2.7-6.1
				c-0.3-0.3-0.6-0.7-0.9-1c-0.1-0.2-0.2-0.4-0.2-0.5c0.2,0,0.4,0,0.6,0.2c1.1,0.8,1.9,1.8,2.6,2.9c1.5,2.3,2.2,4.9,2.4,7.7
				C1140.2,924,1140.2,924.6,1140.2,924.9L1140.2,924.9z"/>
			<path d="M1127.7,916.5c0.9,0.4,1.7,0.8,2.6,1.1c0.4,0.2,0.5,0.4,0.4,0.8c-0.1,0.3-0.5,0.4-0.9,0.1c-0.7-0.5-1.3-0.9-2-1.4
				c-0.1,0-0.1-0.1-0.3-0.2c0.1,0.7,0.1,1.2,0.2,1.8c0,0.3,0.1,0.7,0.1,1s-0.1,0.6-0.5,0.6s-0.5-0.2-0.5-0.6
				c0.1-0.6,0.1-1.3,0.2-1.9c0-0.3,0-0.5,0.1-0.9c-0.4,0.3-0.7,0.5-1,0.7c-0.4,0.3-0.9,0.6-1.3,0.9c-0.3,0.2-0.6,0.2-0.9-0.1
				c-0.2-0.3-0.1-0.6,0.4-0.8c0.8-0.4,1.6-0.7,2.6-1.1c-0.8-0.3-1.5-0.6-2.2-1c-0.1-0.1-0.3-0.1-0.4-0.2c-0.4-0.2-0.5-0.4-0.4-0.8
				c0.2-0.3,0.5-0.4,0.9-0.1c0.6,0.4,1.2,0.8,1.8,1.2c0.1,0.1,0.3,0.2,0.5,0.3c-0.1-0.7-0.1-1.3-0.2-2c0-0.3-0.1-0.6-0.1-0.8
				c0-0.4,0.2-0.6,0.5-0.6c0.4,0,0.5,0.2,0.5,0.6c-0.1,0.8-0.1,1.5-0.2,2.3c0,0.1,0,0.3,0,0.5c0.3-0.2,0.6-0.4,0.9-0.6
				c0.5-0.3,1-0.6,1.4-1c0.3-0.2,0.6-0.2,0.8,0.1c0.2,0.3,0.1,0.6-0.3,0.8C1129.4,915.7,1128.6,916.1,1127.7,916.5L1127.7,916.5z"/>
			<path d="M1101.4,930.9c-0.3,0.1-0.5,0.2-0.7,0.3c-0.7,0.2-1.3-0.1-1.6-0.8c-0.2-0.6,0-1.3,0.5-1.6c0.6-0.3,1.4-0.2,1.7,0.3
				c0.3,0.5,0.5,1.1,0.5,1.7c0.1,1.8-0.5,3.4-1.7,4.8c-0.1,0.1-0.2,0.2-0.3,0.3c-0.1,0-0.2,0-0.3,0c0-0.1,0-0.3,0-0.4
				c0.1-0.1,0.2-0.2,0.3-0.3C1100.9,934,1101.4,932.6,1101.4,930.9L1101.4,930.9z"/>
			<path d="M1086.8,917.4c-0.1-0.1-0.2-0.2-0.3-0.3V917c0.4-0.5,0.9-1,1.4-1.4c0.6-0.5,1.3-0.6,2.1-0.3c0.4,0.2,0.9,0.4,1.3,0.7
				c0.9,0.5,1.8,0.3,2.5-0.3c0.2-0.2,0.3-0.3,0.6-0.5c0.1,0.1,0.2,0.2,0.4,0.4c-0.6,0.5-1.1,1.1-1.7,1.6c-0.6,0.4-1.2,0.4-1.8,0.1
				c-0.4-0.2-0.9-0.5-1.3-0.7c-0.9-0.5-1.7-0.3-2.4,0.3C1087.2,917,1087,917.2,1086.8,917.4L1086.8,917.4z"/>
		</g>
	</g>
	<g>
		<rect x="1207.7" y="896.7" class="st32" width="72.7" height="56.7"/>
		<g>
			<path d="M1219.5,931.7c-2,0-3.9,0-5.9,0c-0.2,0-0.4-0.1-0.6-0.2c-0.2-0.2,0.1-0.5,0.4-0.6c0.5,0,0.9-0.1,1.4-0.1
				c0.6,0,0.9-0.3,1.1-0.9c0.5-1.9,1-3.9,1.4-5.8c0.7-2.6,1.3-5.3,2-7.9c0.2-0.6,0.1-0.7-0.5-0.8c-0.4,0-0.9,0-1.3-0.1
				c-0.2,0-0.3-0.2-0.4-0.3c0.1-0.2,0.3-0.3,0.4-0.5c0.1,0,0.2,0,0.3,0c2.2,0,4.4,0,6.6,0c0.2,0,0.3,0,0.5,0.1
				c0.1,0.1,0.2,0.3,0.1,0.4c-0.1,0.1-0.3,0.3-0.4,0.3c-0.6,0.1-1.3,0.1-1.9,0.1c-0.8,0.1-1,0.3-1.2,1c-1.2,4.6-2.3,9.2-3.5,13.8
				c-0.1,0.3-0.1,0.6,0.3,0.6c1.6,0,3.2,0.2,4.8-0.2c2-0.5,3.1-1.9,3.8-3.7c0.2-0.5,0.3-0.9,0.6-1.4c0.1-0.2,0.3-0.2,0.4-0.3
				c0,0.2,0.2,0.4,0.1,0.5c-0.7,1.8-1.3,3.7-2,5.5c-0.1,0.3-0.4,0.4-0.7,0.4C1223.4,931.7,1221.4,931.7,1219.5,931.7L1219.5,931.7z"
				/>
			<path d="M1249,935.5c-1.1,0-2.2,0-3.4,0c-0.2,0-0.4-0.2-0.6-0.3c0.2-0.1,0.4-0.2,0.6-0.3c0,0,0.1,0,0.2,0c1.1,0,1.2-0.1,1.4-1.1
				c0.8-3.2,1.6-6.3,2.4-9.5c0.1-0.5,0-0.7-0.5-0.7c-0.2,0-0.5,0-0.8,0c-0.1,0-0.2-0.2-0.3-0.3c0.1-0.1,0.2-0.2,0.3-0.3
				c0,0,0.1,0,0.2,0c2.3,0,4.6-0.1,6.8,0c2.8,0.2,4.5,2.3,4.2,5.2c-0.3,3.5-3.2,6.7-6.7,7.2C1251.6,935.6,1250.3,935.5,1249,935.5
				L1249,935.5L1249,935.5z M1250.6,934.9c1.1,0,2.4,0,3.6-0.7c2.5-1.3,4.3-5.6,3.6-8.3c-0.3-1.2-1.2-2-2.4-2.2
				c-1.2-0.2-2.4-0.1-3.6-0.1c-0.4,0-0.5,0.3-0.6,0.6c-0.9,3.4-1.7,6.8-2.6,10.2c-0.1,0.4,0.1,0.5,0.4,0.5
				C1249.5,934.9,1250,934.9,1250.6,934.9L1250.6,934.9z"/>
			<path d="M1266.6,928.8c0.9,0,1.7,0,2.6,0c0.8,0,1.3-0.5,1.6-1.3c0-0.1,0-0.2,0.1-0.3c0.1-0.2,0.3-0.3,0.4-0.5
				c0,0.2,0.2,0.5,0.1,0.7c-0.3,1.2-0.6,2.5-0.9,3.7c-0.1,0.2-0.3,0.3-0.4,0.5c-0.1-0.2-0.1-0.4-0.1-0.6c0-0.2,0.1-0.3,0.1-0.5
				c0.1-0.7-0.1-1-0.8-1c-0.9,0-1.8,0-2.8,0c-0.3,1.1-0.5,2.1-0.8,3.2c-0.2,0.6-0.3,1.2-0.5,1.8c-0.1,0.2-0.1,0.5,0.3,0.5
				c1.6,0,3.2,0,4.8-0.2c1.4-0.1,2.2-1.1,2.9-2.3c0.2-0.4,0.4-0.9,0.7-1.3c0.1-0.1,0.3-0.2,0.4-0.3c0,0.2,0.1,0.4,0.1,0.5
				c-0.5,1.3-1.1,2.5-1.7,3.8c-0.1,0.2-0.4,0.3-0.6,0.3c-3.3,0-6.7,0-10,0c-0.2,0-0.3-0.2-0.5-0.2c0.2-0.1,0.3-0.3,0.5-0.3
				c1.7-0.1,1.4-0.2,1.8-1.5c0.8-3,1.5-6,2.3-9c0.2-0.6,0.1-0.6-0.5-0.7c-0.2,0-0.5,0-0.7-0.1c-0.1,0-0.2-0.2-0.3-0.3
				c0.1-0.1,0.2-0.2,0.3-0.3c0.1,0,0.2,0,0.4,0c3.1,0,6.2,0,9.3,0c0.7,0,0.7,0,0.7,0.7c-0.1,1-0.2,2-0.3,3c0,0.2-0.2,0.3-0.3,0.4
				c-0.1-0.2-0.2-0.3-0.3-0.5c0-0.5,0.1-1,0-1.4c-0.1-0.8-0.4-1.3-1.2-1.5c-0.7-0.1-1.4-0.1-2.2-0.2c-0.8,0-1.7,0-2.5,0
				c-0.3,0-0.6,0.1-0.7,0.4C1267.4,925.7,1267,927.2,1266.6,928.8L1266.6,928.8z"/>
			<path d="M1234.8,929.8c-0.4,1.5-0.7,3-1.1,4.5c-0.1,0.4,0,0.6,0.4,0.6c0.2,0,0.5,0,0.7,0.1c0.2,0,0.3,0.2,0.4,0.3
				c-0.2,0.1-0.3,0.3-0.4,0.3c-1,0-2,0-3,0c-0.5,0-1,0-1.4,0c-0.2,0-0.3-0.2-0.4-0.3c0.1-0.1,0.3-0.3,0.4-0.3
				c0.3-0.1,0.6-0.1,0.8-0.1c0.5,0,0.7-0.3,0.8-0.7c0.6-2.6,1.3-5.2,1.9-7.8c0.2-0.7,0.3-1.4,0.5-2.1c0.1-0.4,0-0.6-0.4-0.6
				c-0.3,0-0.6,0-0.8,0c-0.1,0-0.2-0.2-0.3-0.3c0.1-0.1,0.2-0.2,0.3-0.3c0.1,0,0.2,0,0.4,0c2,0,4,0,6,0c0.8,0,1.6,0.2,2.4,0.5
				c1.5,0.7,1.9,2.3,1,3.7s-2.3,2.2-3.9,2.4c-1.2,0.2-2.4,0.1-3.6,0.1C1235.4,929.9,1235.1,929.9,1234.8,929.8L1234.8,929.8z
				 M1234.9,929.2c1.2,0,2.4,0.1,3.5,0c2-0.2,3.1-1.4,3.3-3.4c0.1-1.2-0.4-1.9-1.6-2.1c-1.1-0.1-2.3-0.1-3.4-0.1
				c-0.2,0-0.5,0.2-0.5,0.4C1235.8,925.8,1235.3,927.5,1234.9,929.2L1234.9,929.2z"/>
		</g>
	</g>
	<g>
		<rect x="1201.7" y="710.3" class="st32" width="72.7" height="56.7"/>
		<g>
			<path d="M1214.2,745.3c-2,0-3.9,0-5.9,0c-0.3,0-0.7,0.1-0.7-0.3c0-0.5,0.4-0.5,0.7-0.5c0.4,0,0.7,0,1.1-0.1c0.8-0.1,1-0.2,1.2-1
				c1.2-4.7,2.3-9.3,3.5-14c0.1-0.6,0-0.7-0.6-0.8c-0.4,0-0.9,0-1.3-0.1c-0.2,0-0.3-0.2-0.4-0.3c0.1-0.2,0.3-0.3,0.4-0.5
				c0.1,0,0.2,0,0.3,0c2.2,0,4.5,0,6.7,0c0.1,0,0.2,0,0.2,0c0.2,0.1,0.3,0.2,0.4,0.4c-0.1,0.1-0.3,0.4-0.4,0.4
				c-0.6,0.1-1.2,0.1-1.9,0.1c-1,0.1-1.2,0.3-1.4,1.2c-1.2,4.7-2.3,9.4-3.5,14c-0.1,0.3-0.1,0.6,0.3,0.6c1.7,0,3.3,0.2,5-0.2
				c2.1-0.5,3.2-2,3.9-3.9c0.2-0.5,0.3-0.9,0.6-1.4c0.1-0.1,0.3-0.2,0.5-0.3c0,0.2,0.1,0.4,0.1,0.5c-0.7,1.9-1.4,3.7-2,5.6
				c-0.1,0.4-0.4,0.5-0.7,0.5C1218.2,745.3,1216.2,745.3,1214.2,745.3L1214.2,745.3z"/>
			<path d="M1232.2,736.5c1.1,0,2.2,0,3.3,0c2.7,0.2,4.5,2.2,4.4,5c-0.2,4.2-3.9,7.8-8,7.8c-2.1,0-4.1,0-6.2,0c-0.1,0-0.3,0-0.4,0
				s-0.2-0.2-0.3-0.2c0.1-0.1,0.2-0.3,0.3-0.3c0.4-0.1,0.7-0.1,1.1-0.1s0.6-0.3,0.7-0.7c0.8-3.4,1.7-6.9,2.6-10.3
				c0.1-0.3,0-0.5-0.3-0.5s-0.6,0-0.9-0.1c-0.2,0-0.3-0.2-0.4-0.3c0.2-0.1,0.3-0.3,0.4-0.3c0.9,0,1.7,0,2.6,0
				C1231.5,736.5,1231.9,736.5,1232.2,736.5L1232.2,736.5L1232.2,736.5z M1230.6,748.7c0.4,0,0.7,0,1.1,0c1.8,0,3.3-0.7,4.5-2
				c1.5-1.9,2.2-4.1,2-6.5c-0.1-1.7-1.2-2.8-2.8-3c-1.1-0.1-2.2-0.1-3.3-0.1c-0.4,0-0.6,0.3-0.7,0.6c-0.2,0.8-0.4,1.7-0.6,2.5
				c-0.7,2.6-1.3,5.2-2,7.8c-0.1,0.6-0.1,0.6,0.5,0.6C1229.7,748.7,1230.1,748.7,1230.6,748.7L1230.6,748.7z"/>
			<path d="M1248.3,742c0.1-0.1,0.2-0.3,0.2-0.3c0.3-0.1,0.6-0.3,0.9-0.2c0.4,0.1,0.4,0.5,0.3,0.8c-0.4,1.8-0.9,3.6-1.3,5.4
				c-0.1,0.2-0.1,0.4-0.1,0.6c0.1,0.2,0.2,0.6,0.4,0.6c0.2,0,0.7-0.1,0.8-0.2c0.3-0.5,0.5-1,0.7-1.6c0.1-0.2,0.1-0.3,0.2-0.5
				c0.1-0.1,0.2-0.2,0.3-0.2c0.1,0,0.2,0.2,0.2,0.3c-0.3,0.8-0.5,1.6-1,2.2c-0.6,0.8-2.1,0.6-2.7-0.3c-0.1-0.1-0.2-0.3-0.2-0.5
				c-0.2,0.2-0.4,0.3-0.6,0.5c-0.9,0.7-1.9,1-3.1,0.5c-1.1-0.5-1.5-1.5-1.6-2.7c-0.1-2.2,1.6-4.6,3.6-5.3
				C1246.6,740.8,1247.4,741,1248.3,742L1248.3,742z M1243.2,747.3c0.1,0.3,0.1,0.7,0.3,1c0.2,0.3,0.6,0.6,0.9,0.6
				c0.9,0.1,2.4-1,2.6-1.8c0.3-1.2,0.6-2.4,0.9-3.6c0.2-0.7-0.2-1.2-0.6-1.6c-0.4-0.4-1-0.5-1.5-0.2c-0.6,0.4-1.1,0.8-1.5,1.4
				C1243.6,744.3,1243.4,745.7,1243.2,747.3L1243.2,747.3z"/>
			<path d="M1264.8,748.2c-0.4,0.3-0.7,0.6-1.1,0.8c-1.7,1-3.7,0.2-4.1-1.8c-0.5-2.4,1.4-5.5,3.8-6.1c1.1-0.3,1.9,0,2.6,0.9
				c0.1-0.2,0.2-0.4,0.3-0.4c0.3-0.1,0.6-0.2,0.8-0.1c0.1,0,0.3,0.5,0.2,0.7c-0.2,1.1-0.5,2.3-0.8,3.4c-0.2,0.6-0.3,1.2-0.4,1.8
				c0,0.2-0.1,0.4-0.1,0.5c0,0.4-0.1,0.8,0.4,1s0.8-0.2,1-0.5c0.2-0.4,0.3-0.8,0.5-1.2c0.1-0.3,0-0.8,0.5-0.7c0.1,0,0.1,0.6,0,0.8
				c-0.1,0.4-0.3,0.8-0.5,1.2c-0.3,0.6-0.8,1-1.5,1s-1.3-0.3-1.7-1C1264.9,748.4,1264.8,748.3,1264.8,748.2L1264.8,748.2z
				 M1261,747.2c0.1,0.3,0.1,0.7,0.3,1c0.2,0.4,0.5,0.7,1,0.7c0.9,0,2.4-1,2.6-1.9c0.3-1.2,0.6-2.4,0.9-3.5c0.2-0.7-0.1-1.2-0.6-1.6
				c-0.4-0.4-1-0.4-1.5-0.2c-0.7,0.3-1.2,0.8-1.5,1.5C1261.4,744.4,1261.1,745.8,1261,747.2L1261,747.2z"/>
			<path d="M1254.2,741.8c-0.6,0-1.2,0-1.8,0c-0.2,0-0.3-0.2-0.5-0.2c0.2-0.1,0.3-0.3,0.5-0.3c0.5,0,1,0,1.5,0
				c0.3,0,0.4-0.1,0.5-0.4c0.2-0.8,0.4-1.5,0.6-2.3c0.1-0.2,0.1-0.5,0.3-0.6c0.2-0.2,0.6-0.3,0.8-0.3c0.4,0,0.4,0.4,0.3,0.7
				c-0.2,0.9-0.4,1.8-0.7,2.8c0.6,0,1.1,0,1.7,0c0.2,0,0.5,0.1,0.6,0.2c0.1,0.4-0.3,0.3-0.5,0.3c-0.6,0-1.2,0-1.8,0
				c-0.5,2-1,3.9-1.4,5.9c-0.1,0.4,0,0.9,0.3,1.1c0.4,0.3,0.9,0.1,1.2-0.2c0.6-0.6,1-1.2,1.5-1.8c0.1-0.2,0.3-0.2,0.5-0.4
				c0,0.2,0.1,0.4,0,0.6c-0.4,0.8-0.9,1.6-1.7,2c-0.3,0.2-0.8,0.4-1.2,0.4c-1.4,0.1-2.3-0.9-2-2.3c0.4-1.5,0.8-3,1.1-4.6
				C1254.1,742.4,1254.1,742.1,1254.2,741.8L1254.2,741.8z"/>
		</g>
	</g>
	<g>
		<rect x="1394" y="894.3" class="st32" width="75.6" height="56.7"/>
		<g>
			<path d="M1412.9,931.1c-1.9,0-3.7,0-5.6,0c-0.2,0-0.3,0-0.4,0c-0.2-0.1-0.3-0.2-0.5-0.3c0.2-0.1,0.3-0.4,0.4-0.4
				c0.4-0.1,0.8-0.1,1.3-0.1c0.7,0,1.1-0.4,1.2-1c0.7-2.7,1.3-5.4,2-8.1c0.4-1.8,0.9-3.6,1.3-5.4c0.2-0.9,0.2-0.9-0.7-1
				c-0.4,0-0.7,0-1.1-0.1c-0.2,0-0.3-0.2-0.5-0.3c0.2-0.2,0.3-0.3,0.5-0.4c0.1,0,0.2,0,0.2,0c2.2,0,4.4,0,6.6,0h0.1
				c0.2,0.1,0.3,0.2,0.5,0.3c-0.2,0.2-0.3,0.4-0.5,0.4c-0.6,0.1-1.3,0.1-1.9,0.1s-1,0.3-1.2,1c-1.2,4.7-2.3,9.3-3.5,14
				c-0.1,0.4-0.1,0.7,0.4,0.7c1.6-0.1,3.2,0,4.7-0.2c1.7-0.3,2.8-1.4,3.6-2.9c0.3-0.7,0.6-1.4,0.9-2.1c0.1-0.2,0.3-0.3,0.5-0.4
				c0,0.2,0.1,0.4,0.1,0.6c-0.6,1.8-1.3,3.6-1.9,5.4c-0.2,0.4-0.4,0.5-0.8,0.5C1416.8,931.2,1414.9,931.2,1412.9,931.1L1412.9,931.1
				z"/>
			<path d="M1430.3,920c2.5,0,4.2,1.8,4.1,4.5c-0.1,3.2-2.9,6.3-6,6.8c-2.3,0.4-4.3-1-4.7-3.3C1423.1,924.3,1426.6,920,1430.3,920
				L1430.3,920z M1425.5,927.9c0.1,1.1,0.2,2.1,1.2,2.6c1,0.6,2,0.3,2.8-0.3c0.4-0.3,0.9-0.7,1.2-1.1c0.5-0.8,0.9-1.6,1.2-2.5
				c0.4-1.3,0.8-2.7,0.6-4.1c-0.2-1.6-1.6-2.5-3.1-1.8c-0.7,0.3-1.3,0.8-1.8,1.3C1426.1,923.7,1425.8,925.9,1425.5,927.9
				L1425.5,927.9z"/>
			<path d="M1444.7,921.6c-0.7-1.1-1.8-1.2-2.8-1c-1.1,0.1-1.8,0.7-2.2,1.7c-0.3,0.9,0.1,1.5,0.9,1.8c0.5,0.2,1,0.3,1.6,0.4
				c2.2,0.3,3.6,2.4,1.9,5c-1.3,2-4.9,2.7-6.9,1.3c-0.9-0.6-1.2-1.4-1-2.4c0-0.1,0.1-0.2,0.1-0.2c0.3-0.6,0.9-1,1.5-0.8
				c0.3,0.1,0.6,0.5,0.7,0.8c0.1,0.6-0.4,1.2-1,1.3c-0.1,0-0.3,0-0.6,0.1c0.4,0.3,0.6,0.7,1,0.8c1.5,0.7,3.1,0.7,4.5-0.3
				c0.4-0.3,0.8-0.8,1-1.3c0.4-1,0.1-1.8-1-2.2c-0.5-0.2-0.9-0.3-1.4-0.4c-1.1-0.3-2.2-0.6-2.5-1.8c-0.3-1.3,0.2-2.4,1.1-3.3
				c1.4-1.2,3-1.4,4.7-0.8c0.7,0.2,1.2,0.8,1.3,1.5c0,0.4-0.1,1-0.3,1.3c-0.2,0.2-0.7,0.3-1,0.4c-0.2,0-0.5-0.3-0.5-0.5
				c0-0.3,0.2-0.7,0.4-1C1444.1,921.8,1444.4,921.7,1444.7,921.6L1444.7,921.6z"/>
			<path d="M1456.5,921.6L1456.5,921.6c-0.7-1.1-1.8-1.1-2.8-1c-1.1,0.2-1.8,0.7-2.1,1.8c-0.2,0.8,0.1,1.4,0.9,1.7
				c0.5,0.2,1,0.3,1.6,0.4c2.2,0.4,3.7,2.4,1.9,5c-1.3,1.9-4.8,2.6-6.8,1.3c-0.8-0.5-1.2-1.4-1-2.3c0-0.1,0.1-0.2,0.1-0.3
				c0.3-0.6,0.9-1,1.5-0.9c0.5,0.1,0.7,0.4,0.7,0.9c0,0.6-0.5,1.2-1.1,1.3c-0.1,0-0.2,0-0.5,0.2c0.4,0.3,0.7,0.7,1.2,0.8
				c1.3,0.5,2.6,0.5,3.8-0.1c0.7-0.3,1.2-1,1.4-1.7c0.3-1,0-1.7-1-2.1c-0.5-0.2-1-0.3-1.5-0.4c-2.7-0.5-3.5-2.8-1.7-4.9
				c1.2-1.3,3.7-1.8,5.2-0.9c0.7,0.4,1.2,1.1,1,2c0,0.2-0.1,0.6-0.3,0.7c-0.3,0.2-0.7,0.4-1.1,0.4c-0.2,0-0.5-0.4-0.5-0.5
				c0-0.3,0.2-0.7,0.4-1C1456,921.8,1456.3,921.8,1456.5,921.6L1456.5,921.6z"/>
		</g>
	</g>
</g>
<g id="References">
	<text transform="matrix(1 0 0 1 1073.86 2121.2)" class="st20 st22">R</text>
	<text transform="matrix(1 0 0 1 1092.79 2121.2)" class="st20 st22">ef</text>
	<text transform="matrix(1 0 0 1 1120.66 2121.2)" class="st20 st22">e</text>
	<text transform="matrix(1 0 0 1 1137.88 2121.2)" class="st20 st22">r</text>
	<text transform="matrix(1 0 0 1 1148.5599 2121.2)" class="st20 st22">en</text>
	<text transform="matrix(1 0 0 1 1183.54 2121.2)" class="st20 st22">c</text>
	<text transform="matrix(1 0 0 1 1197.13 2121.2)" class="st20 st22">es</text>
	<text transform="matrix(1 0 0 1 1073.86 2181.2)" class="st20 st37">[1] </text>
	<text transform="matrix(1 0 0 1 1113.66 2181.2)" class="st2 st37">J. Bagterp</text>
	<text transform="matrix(1 0 0 1 1219.26 2181.2)" class="st20 st37">:</text>
	<text transform="matrix(1 0 0 1 1225.73 2181.2)" class="st2 st37"> j.ifa</text>
	<text transform="matrix(1 0 0 1 1272.11 2181.2)" class="st2 st37 st28">c</text>
	<text transform="matrix(1 0 0 1 1282.51 2181.2)" class="st2 st37">ol.2016.07.279 (2016)</text>
	<text transform="matrix(1 0 0 1 1073.86 2211.2)" class="st20 st37">[2] </text>
	<text transform="matrix(1 0 0 1 1113.66 2211.2)" class="st2 st37">S. Kanderian:  JDS</text>
	<text transform="matrix(1 0 0 1 1303.78 2211.2)" class="st2 st37 st38">T</text>
	<text transform="matrix(1 0 0 1 1316.63 2211.2)" class="st2 st37">. ;3(5):1047-1057 (2009)</text>
	<text transform="matrix(1 0 0 1 1073.86 2241.2)" class="st20 st37">[3] </text>
	<text transform="matrix(1 0 0 1 1113.66 2241.2)" class="st2 st37">M. </text>
	<text transform="matrix(1 0 0 1 1144.21 2241.2)" class="st2 st37">C</text>
	<text transform="matrix(1 0 0 1 1157.58 2241.2)" class="st2 st37">onesa: Nonlinear Dyn (2016) 84:91–105</text>
	<text transform="matrix(1 0 0 1 1073.86 2271.2)" class="st20 st37">[4]</text>
	<text transform="matrix(1 0 0 1 1107.41 2271.2)" class="st2 st37"> M. Raissi:</text>
	<text transform="matrix(1 0 0 1 1213.86 2271.2)" class="st20 st37"> </text>
	<text transform="matrix(1 0 0 1 1220.11 2271.2)" class="st2 st37">arXiv:1711.10561 (2017)</text>
</g>
</svg>
